<?xml version="1.0" encoding="UTF-8" standalone="no"?><svg xmlns="http://www.w3.org/2000/svg" xmlns:xlink="http://www.w3.org/1999/xlink" clip-rule="evenodd" stroke-miterlimit="4.00" viewBox="0 0 547 128"><desc>SVG generated by Keynote</desc><defs><pattern id="EA44A6E1-A550-478A-96AB-463822439E86" patternUnits="userSpaceOnUse" width="300" height="300" viewBox="0 0 300 300" patternTransform="matrix(1.000000, 0.000000, 0.000000, -1.000000, 6.098633, 122.299300)"><image xlink:href="../../161B0B54-7FD3-4E94-A586-B260162458D2/assets/90096E66F30E4D38552F9ACA9C23E8B7.jpeg" width="300.00" height="300.00"></image></pattern></defs><g transform="matrix(1.00, 0.00, -0.00, -1.00, 0.0, 128.0)"><image xlink:href="AFB2EFDFEF1F14178ABC636F74482ED2.png" width="542.00" height="125.00" transform="matrix(1.00, 0.00, -0.00, -1.00, 3.1, 126.3)" opacity="0.50"></image><g><clipPath id="clip-199"><path d="M 237.3 122.3 C 232.8 122.3 229.2 118.7 229.2 114.2 L 229.2 94.6 L 6.1 78.5 L 229.2 62.3 L 229.2 13.6 C 229.2 9.2 232.8 5.5 237.3 5.5 L 532.4 5.5 C 536.8 5.5 540.5 9.2 540.5 13.6 L 540.5 114.2 C 540.5 118.7 536.8 122.3 532.4 122.3 L 237.3 122.3 Z M 237.3 122.3 "></path></clipPath><g clip-path="url(#clip-199)"><path d="M 6.1 5.5 L 540.5 5.5 L 540.5 122.3 L 6.1 122.3 Z M 6.1 5.5 " fill="url(#EA44A6E1-A550-478A-96AB-463822439E86)"></path><path d="M 6.1 122.3 L 540.5 122.3 L 540.5 5.5 L 6.1 5.5 Z M 6.1 122.3 " fill="#00D026" fill-opacity="0.50"></path></g></g><g><clipPath id="clip-200"><path d="M 225.2 5.6 L 544.5 5.6 L 544.5 122.3 L 225.2 122.3 Z M 225.2 5.6 "></path></clipPath><g clip-path="url(#clip-200)"><text xml:space="preserve" font-family="Helvetica-Bold" font-weight="bold" font-size="32.0" fill="#FEFFFE" transform="matrix(1.00, 0.00, -0.00, -1.00, 299.0, 52.0)">C</text><text xml:space="preserve" font-family="Helvetica-Bold" font-weight="bold" font-size="32.0" fill="#FEFFFE" transform="matrix(1.00, 0.00, -0.00, -1.00, 322.1, 52.0)">o</text><text xml:space="preserve" font-family="Helvetica-Bold" font-weight="bold" font-size="32.0" fill="#FEFFFE" transform="matrix(1.00, 0.00, -0.00, -1.00, 341.7, 52.0)">d</text><text xml:space="preserve" font-family="Helvetica-Bold" font-weight="bold" font-size="32.0" fill="#FEFFFE" transform="matrix(1.00, 0.00, -0.00, -1.00, 361.2, 52.0)">e</text><text xml:space="preserve" font-family="Helvetica-Bold" font-weight="bold" font-size="32.0" fill="#FEFFFE" transform="matrix(1.00, 0.00, -0.00, -1.00, 379.0, 52.0)"> </text><text xml:space="preserve" font-family="Helvetica-Bold" font-weight="bold" font-size="32.0" fill="#FEFFFE" transform="matrix(1.00, 0.00, -0.00, -1.00, 387.9, 52.0)">b</text><text xml:space="preserve" font-family="Helvetica-Bold" font-weight="bold" font-size="32.0" fill="#FEFFFE" transform="matrix(1.00, 0.00, -0.00, -1.00, 407.5, 52.0)">l</text><text xml:space="preserve" font-family="Helvetica-Bold" font-weight="bold" font-size="32.0" fill="#FEFFFE" transform="matrix(1.00, 0.00, -0.00, -1.00, 416.4, 52.0)">o</text><text xml:space="preserve" font-family="Helvetica-Bold" font-weight="bold" font-size="32.0" fill="#FEFFFE" transform="matrix(1.00, 0.00, -0.00, -1.00, 435.9, 52.0)">c</text><text xml:space="preserve" font-family="Helvetica-Bold" font-weight="bold" font-size="32.0" fill="#FEFFFE" transform="matrix(1.00, 0.00, -0.00, -1.00, 453.7, 52.0)">k</text></g></g></g></svg>