<?xml version="1.0" encoding="UTF-8" standalone="no"?><svg xmlns="http://www.w3.org/2000/svg" xmlns:xlink="http://www.w3.org/1999/xlink" clip-rule="evenodd" stroke-miterlimit="4.00" viewBox="0 0 681 124"><desc>SVG generated by Keynote</desc><defs><pattern id="B41F10B0-2C65-4D83-8C75-D3F0C5792381" patternUnits="userSpaceOnUse" width="300" height="300" viewBox="0 0 300 300" patternTransform="matrix(1.000000, 0.000000, 0.000000, -1.000000, 6.631104, 118.175300)"><image xlink:href="../../161B0B54-7FD3-4E94-A586-B260162458D2/assets/90096E66F30E4D38552F9ACA9C23E8B7.jpeg" width="300.00" height="300.00"></image></pattern></defs><g transform="matrix(1.00, 0.00, -0.00, -1.00, 0.0, 124.0)"><image xlink:href="7A794DF6C196BDEA7474C8DE86BBD267.png" width="676.00" height="120.00" transform="matrix(1.00, 0.00, -0.00, -1.00, 3.6, 122.2)" opacity="0.50"></image><g><clipPath id="clip-143"><path d="M 371.3 118.2 C 366.8 118.2 363.2 114.6 363.2 110.1 L 363.2 96.4 L 6.6 80.2 L 363.2 64.1 L 363.2 14.0 C 363.2 9.5 366.8 5.9 371.3 5.9 L 666.4 5.9 C 670.8 5.9 674.5 9.5 674.5 14.0 L 674.5 110.1 C 674.5 114.6 670.8 118.2 666.4 118.2 L 371.3 118.2 Z M 371.3 118.2 "></path></clipPath><g clip-path="url(#clip-143)"><path d="M 6.6 5.9 L 674.5 5.9 L 674.5 118.2 L 6.6 118.2 Z M 6.6 5.9 " fill="url(#B41F10B0-2C65-4D83-8C75-D3F0C5792381)"></path><path d="M 6.6 118.2 L 674.5 118.2 L 674.5 5.9 L 6.6 5.9 Z M 6.6 118.2 " fill="#00D026" fill-opacity="0.50"></path></g></g><g><clipPath id="clip-144"><path d="M 359.2 5.9 L 678.5 5.9 L 678.5 118.2 L 359.2 118.2 Z M 359.2 5.9 "></path></clipPath><g clip-path="url(#clip-144)"><text xml:space="preserve" font-family="Helvetica-Bold" font-weight="bold" font-size="32.0" fill="#FEFFFE" transform="matrix(1.00, 0.00, -0.00, -1.00, 418.0, 51.0)">L</text><text xml:space="preserve" font-family="Helvetica-Bold" font-weight="bold" font-size="32.0" fill="#FEFFFE" transform="matrix(1.00, 0.00, -0.00, -1.00, 437.5, 51.0)">i</text><text xml:space="preserve" font-family="Helvetica-Bold" font-weight="bold" font-size="32.0" fill="#FEFFFE" transform="matrix(1.00, 0.00, -0.00, -1.00, 446.4, 51.0)">b</text><text xml:space="preserve" font-family="Helvetica-Bold" font-weight="bold" font-size="32.0" fill="#FEFFFE" transform="matrix(1.00, 0.00, -0.00, -1.00, 466.0, 51.0)">r</text><text xml:space="preserve" font-family="Helvetica-Bold" font-weight="bold" font-size="32.0" fill="#FEFFFE" transform="matrix(1.00, 0.00, -0.00, -1.00, 478.4, 51.0)">a</text><text xml:space="preserve" font-family="Helvetica-Bold" font-weight="bold" font-size="32.0" fill="#FEFFFE" transform="matrix(1.00, 0.00, -0.00, -1.00, 496.2, 51.0)">r</text><text xml:space="preserve" font-family="Helvetica-Bold" font-weight="bold" font-size="32.0" fill="#FEFFFE" transform="matrix(1.00, 0.00, -0.00, -1.00, 508.6, 51.0)">y</text><text xml:space="preserve" font-family="Helvetica-Bold" font-weight="bold" font-size="32.0" fill="#FEFFFE" transform="matrix(1.00, 0.00, -0.00, -1.00, 526.4, 51.0)"> </text><text xml:space="preserve" font-family="Helvetica-Bold" font-weight="bold" font-size="32.0" fill="#FEFFFE" transform="matrix(1.00, 0.00, -0.00, -1.00, 535.3, 51.0)">n</text><text xml:space="preserve" font-family="Helvetica-Bold" font-weight="bold" font-size="32.0" fill="#FEFFFE" transform="matrix(1.00, 0.00, -0.00, -1.00, 554.9, 51.0)">a</text><text xml:space="preserve" font-family="Helvetica-Bold" font-weight="bold" font-size="32.0" fill="#FEFFFE" transform="matrix(1.00, 0.00, -0.00, -1.00, 572.7, 51.0)">m</text><text xml:space="preserve" font-family="Helvetica-Bold" font-weight="bold" font-size="32.0" fill="#FEFFFE" transform="matrix(1.00, 0.00, -0.00, -1.00, 601.1, 51.0)">e</text></g></g></g></svg>