<?xml version="1.0" encoding="UTF-8" standalone="no"?><svg xmlns="http://www.w3.org/2000/svg" xmlns:xlink="http://www.w3.org/1999/xlink" clip-rule="evenodd" stroke-miterlimit="4.00" viewBox="0 0 433 189"><desc>SVG generated by Keynote</desc><defs><pattern id="ABE3F46D-D56F-4612-B8C2-95024C5CAFA1" patternUnits="userSpaceOnUse" width="300" height="300" viewBox="0 0 300 300" patternTransform="matrix(1.000000, 0.000000, 0.000000, -1.000000, 6.368011, 183.393700)"><image xlink:href="../../161B0B54-7FD3-4E94-A586-B260162458D2/assets/90096E66F30E4D38552F9ACA9C23E8B7.jpeg" width="300.00" height="300.00"></image></pattern></defs><g transform="matrix(1.00, 0.00, -0.00, -1.00, 0.0, 189.0)"><image xlink:href="538FB25956CB7199130E52767483EC35.png" width="428.00" height="186.00" transform="matrix(1.00, 0.00, -0.00, -1.00, 3.4, 187.4)" opacity="0.50"></image><g><clipPath id="clip-147"><path d="M 426.2 183.4 L 286.9 117.5 L 14.4 117.5 C 10.0 117.5 6.4 113.9 6.4 109.4 L 6.4 13.2 C 6.4 8.8 10.0 5.2 14.4 5.2 L 309.6 5.2 C 314.0 5.2 317.6 8.8 317.6 13.2 L 317.6 94.0 L 426.2 183.4 Z M 426.2 183.4 "></path></clipPath><g clip-path="url(#clip-147)"><path d="M 6.4 5.2 L 426.2 5.2 L 426.2 183.4 L 6.4 183.4 Z M 6.4 5.2 " fill="url(#ABE3F46D-D56F-4612-B8C2-95024C5CAFA1)"></path><path d="M 6.4 183.4 L 426.2 183.4 L 426.2 5.2 L 6.4 5.2 Z M 6.4 183.4 " fill="#00D026" fill-opacity="0.50"></path></g></g><g><clipPath id="clip-148"><path d="M 2.4 5.2 L 321.6 5.2 L 321.6 117.5 L 2.4 117.5 Z M 2.4 5.2 "></path></clipPath><g clip-path="url(#clip-148)"><text xml:space="preserve" font-family="Helvetica-Bold" font-weight="bold" font-size="32.0" fill="#FEFFFE" transform="matrix(1.00, 0.00, -0.00, -1.00, 49.0, 69.0)">S</text><text xml:space="preserve" font-family="Helvetica-Bold" font-weight="bold" font-size="32.0" fill="#FEFFFE" transform="matrix(1.00, 0.00, -0.00, -1.00, 70.3, 69.0)">o</text><text xml:space="preserve" font-family="Helvetica-Bold" font-weight="bold" font-size="32.0" fill="#FEFFFE" transform="matrix(1.00, 0.00, -0.00, -1.00, 89.9, 69.0)">u</text><text xml:space="preserve" font-family="Helvetica-Bold" font-weight="bold" font-size="32.0" fill="#FEFFFE" transform="matrix(1.00, 0.00, -0.00, -1.00, 109.4, 69.0)">r</text><text xml:space="preserve" font-family="Helvetica-Bold" font-weight="bold" font-size="32.0" fill="#FEFFFE" transform="matrix(1.00, 0.00, -0.00, -1.00, 121.9, 69.0)">c</text><text xml:space="preserve" font-family="Helvetica-Bold" font-weight="bold" font-size="32.0" fill="#FEFFFE" transform="matrix(1.00, 0.00, -0.00, -1.00, 139.7, 69.0)">e</text><text xml:space="preserve" font-family="Helvetica-Bold" font-weight="bold" font-size="32.0" fill="#FEFFFE" transform="matrix(1.00, 0.00, -0.00, -1.00, 157.5, 69.0)"> </text><text xml:space="preserve" font-family="Helvetica-Bold" font-weight="bold" font-size="32.0" fill="#FEFFFE" transform="matrix(1.00, 0.00, -0.00, -1.00, 166.4, 69.0)">c</text><text xml:space="preserve" font-family="Helvetica-Bold" font-weight="bold" font-size="32.0" fill="#FEFFFE" transform="matrix(1.00, 0.00, -0.00, -1.00, 184.2, 69.0)">o</text><text xml:space="preserve" font-family="Helvetica-Bold" font-weight="bold" font-size="32.0" fill="#FEFFFE" transform="matrix(1.00, 0.00, -0.00, -1.00, 203.7, 69.0)">n</text><text xml:space="preserve" font-family="Helvetica-Bold" font-weight="bold" font-size="32.0" fill="#FEFFFE" transform="matrix(1.00, 0.00, -0.00, -1.00, 223.3, 69.0)">t</text><text xml:space="preserve" font-family="Helvetica-Bold" font-weight="bold" font-size="32.0" fill="#FEFFFE" transform="matrix(1.00, 0.00, -0.00, -1.00, 233.9, 69.0)">r</text><text xml:space="preserve" font-family="Helvetica-Bold" font-weight="bold" font-size="32.0" fill="#FEFFFE" transform="matrix(1.00, 0.00, -0.00, -1.00, 246.4, 69.0)">o</text><text xml:space="preserve" font-family="Helvetica-Bold" font-weight="bold" font-size="32.0" fill="#FEFFFE" transform="matrix(1.00, 0.00, -0.00, -1.00, 265.9, 69.0)">l</text><text xml:space="preserve" font-family="Helvetica-Bold" font-weight="bold" font-size="32.0" fill="#FEFFFE" transform="matrix(1.00, 0.00, -0.00, -1.00, 274.8, 69.0)"> </text><text xml:space="preserve" font-family="Helvetica-Bold" font-weight="bold" font-size="32.0" fill="#FEFFFE" transform="matrix(1.00, 0.00, -0.00, -1.00, 60.0, 31.0)">c</text><text xml:space="preserve" font-family="Helvetica-Bold" font-weight="bold" font-size="32.0" fill="#FEFFFE" transform="matrix(1.00, 0.00, -0.00, -1.00, 77.8, 31.0)">o</text><text xml:space="preserve" font-family="Helvetica-Bold" font-weight="bold" font-size="32.0" fill="#FEFFFE" transform="matrix(1.00, 0.00, -0.00, -1.00, 97.3, 31.0)">n</text><text xml:space="preserve" font-family="Helvetica-Bold" font-weight="bold" font-size="32.0" fill="#FEFFFE" transform="matrix(1.00, 0.00, -0.00, -1.00, 116.9, 31.0)">ï¬</text><text xml:space="preserve" font-family="Helvetica-Bold" font-weight="bold" font-size="32.0" fill="#FEFFFE" transform="matrix(1.00, 0.00, -0.00, -1.00, 136.4, 31.0)">g</text><text xml:space="preserve" font-family="Helvetica-Bold" font-weight="bold" font-size="32.0" fill="#FEFFFE" transform="matrix(1.00, 0.00, -0.00, -1.00, 156.0, 31.0)">u</text><text xml:space="preserve" font-family="Helvetica-Bold" font-weight="bold" font-size="32.0" fill="#FEFFFE" transform="matrix(1.00, 0.00, -0.00, -1.00, 175.5, 31.0)">r</text><text xml:space="preserve" font-family="Helvetica-Bold" font-weight="bold" font-size="32.0" fill="#FEFFFE" transform="matrix(1.00, 0.00, -0.00, -1.00, 188.0, 31.0)">a</text><text xml:space="preserve" font-family="Helvetica-Bold" font-weight="bold" font-size="32.0" fill="#FEFFFE" transform="matrix(1.00, 0.00, -0.00, -1.00, 205.8, 31.0)">t</text><text xml:space="preserve" font-family="Helvetica-Bold" font-weight="bold" font-size="32.0" fill="#FEFFFE" transform="matrix(1.00, 0.00, -0.00, -1.00, 216.4, 31.0)">i</text><text xml:space="preserve" font-family="Helvetica-Bold" font-weight="bold" font-size="32.0" fill="#FEFFFE" transform="matrix(1.00, 0.00, -0.00, -1.00, 225.3, 31.0)">o</text><text xml:space="preserve" font-family="Helvetica-Bold" font-weight="bold" font-size="32.0" fill="#FEFFFE" transform="matrix(1.00, 0.00, -0.00, -1.00, 244.8, 31.0)">n</text></g></g></g></svg>