<?xml version="1.0" encoding="UTF-8" standalone="no"?><svg xmlns="http://www.w3.org/2000/svg" xmlns:xlink="http://www.w3.org/1999/xlink" clip-rule="evenodd" stroke-miterlimit="4.00" viewBox="0 0 421 173"><desc>SVG generated by Keynote</desc><defs><pattern id="142D4EBF-5C5A-40CB-BE90-A1E468E51855" patternUnits="userSpaceOnUse" width="300" height="300" viewBox="0 0 300 300" patternTransform="matrix(1.000000, 0.000000, 0.000000, -1.000000, 6.895935, 167.106700)"><image xlink:href="../../161B0B54-7FD3-4E94-A586-B260162458D2/assets/90096E66F30E4D38552F9ACA9C23E8B7.jpeg" width="300.00" height="300.00"></image></pattern></defs><g transform="matrix(1.00, 0.00, -0.00, -1.00, 0.0, 173.0)"><image xlink:href="F15F5169893D0565A0A9C9E1E97BA963.png" width="415.00" height="169.00" transform="matrix(1.00, 0.00, -0.00, -1.00, 3.9, 171.1)" opacity="0.50"></image><g><clipPath id="clip-209"><path d="M 414.3 167.1 L 279.8 122.7 L 15.0 122.7 C 10.5 122.7 6.9 119.1 6.9 114.6 L 6.9 14.0 C 6.9 9.6 10.5 6.0 15.0 6.0 L 310.1 6.0 C 314.5 6.0 318.2 9.6 318.2 14.0 L 318.2 99.3 L 414.3 167.1 Z M 414.3 167.1 "></path></clipPath><g clip-path="url(#clip-209)"><path d="M 6.9 6.0 L 414.3 6.0 L 414.3 167.1 L 6.9 167.1 Z M 6.9 6.0 " fill="url(#142D4EBF-5C5A-40CB-BE90-A1E468E51855)"></path><path d="M 6.9 167.1 L 414.3 167.1 L 414.3 6.0 L 6.9 6.0 Z M 6.9 167.1 " fill="#00D026" fill-opacity="0.50"></path></g></g><g><clipPath id="clip-210"><path d="M 2.9 6.0 L 322.2 6.0 L 322.2 122.7 L 2.9 122.7 Z M 2.9 6.0 "></path></clipPath><g clip-path="url(#clip-210)"><text xml:space="preserve" font-family="Helvetica-Bold" font-weight="bold" font-size="32.0" fill="#FEFFFE" transform="matrix(1.00, 0.00, -0.00, -1.00, 50.0, 52.0)">B</text><text xml:space="preserve" font-family="Helvetica-Bold" font-weight="bold" font-size="32.0" fill="#FEFFFE" transform="matrix(1.00, 0.00, -0.00, -1.00, 73.1, 52.0)">r</text><text xml:space="preserve" font-family="Helvetica-Bold" font-weight="bold" font-size="32.0" fill="#FEFFFE" transform="matrix(1.00, 0.00, -0.00, -1.00, 85.6, 52.0)">a</text><text xml:space="preserve" font-family="Helvetica-Bold" font-weight="bold" font-size="32.0" fill="#FEFFFE" transform="matrix(1.00, 0.00, -0.00, -1.00, 103.4, 52.0)">n</text><text xml:space="preserve" font-family="Helvetica-Bold" font-weight="bold" font-size="32.0" fill="#FEFFFE" transform="matrix(1.00, 0.00, -0.00, -1.00, 122.9, 52.0)">c</text><text xml:space="preserve" font-family="Helvetica-Bold" font-weight="bold" font-size="32.0" fill="#FEFFFE" transform="matrix(1.00, 0.00, -0.00, -1.00, 140.7, 52.0)">h</text><text xml:space="preserve" font-family="Helvetica-Bold" font-weight="bold" font-size="32.0" fill="#FEFFFE" transform="matrix(1.00, 0.00, -0.00, -1.00, 160.3, 52.0)">e</text><text xml:space="preserve" font-family="Helvetica-Bold" font-weight="bold" font-size="32.0" fill="#FEFFFE" transform="matrix(1.00, 0.00, -0.00, -1.00, 178.1, 52.0)">s</text><text xml:space="preserve" font-family="Helvetica-Bold" font-weight="bold" font-size="32.0" fill="#FEFFFE" transform="matrix(1.00, 0.00, -0.00, -1.00, 195.9, 52.0)"> </text><text xml:space="preserve" font-family="Helvetica-Bold" font-weight="bold" font-size="32.0" fill="#FEFFFE" transform="matrix(1.00, 0.00, -0.00, -1.00, 204.8, 52.0)">v</text><text xml:space="preserve" font-family="Helvetica-Bold" font-weight="bold" font-size="32.0" fill="#FEFFFE" transform="matrix(1.00, 0.00, -0.00, -1.00, 222.6, 52.0)">i</text><text xml:space="preserve" font-family="Helvetica-Bold" font-weight="bold" font-size="32.0" fill="#FEFFFE" transform="matrix(1.00, 0.00, -0.00, -1.00, 231.5, 52.0)">e</text><text xml:space="preserve" font-family="Helvetica-Bold" font-weight="bold" font-size="32.0" fill="#FEFFFE" transform="matrix(1.00, 0.00, -0.00, -1.00, 249.3, 52.0)">w</text></g></g></g></svg>