<?xml version="1.0" encoding="UTF-8" standalone="no"?><svg xmlns="http://www.w3.org/2000/svg" xmlns:xlink="http://www.w3.org/1999/xlink" clip-rule="evenodd" stroke-miterlimit="4.00" viewBox="0 0 502 124"><desc>SVG generated by Keynote</desc><defs><pattern id="2B6888BE-31FB-4983-ADDD-9028ED0D30F9" patternUnits="userSpaceOnUse" width="300" height="300" viewBox="0 0 300 300" patternTransform="matrix(1.000000, 0.000000, 0.000000, -1.000000, 6.440636, 118.076000)"><image xlink:href="../../161B0B54-7FD3-4E94-A586-B260162458D2/assets/90096E66F30E4D38552F9ACA9C23E8B7.jpeg" width="300.00" height="300.00"></image></pattern></defs><g transform="matrix(1.00, 0.00, -0.00, -1.00, 0.0, 124.0)"><image xlink:href="963C82F86E743F4180A2D08CAD7356FA.png" width="497.00" height="120.00" transform="matrix(1.00, 0.00, -0.00, -1.00, 3.4, 122.1)" opacity="0.50"></image><g><clipPath id="clip-125"><path d="M 14.5 118.1 C 10.0 118.1 6.4 114.5 6.4 110.0 L 6.4 13.9 C 6.4 9.4 10.0 5.8 14.5 5.8 L 309.6 5.8 C 314.1 5.8 317.7 9.4 317.7 13.9 L 317.7 32.6 L 495.2 48.8 L 317.7 65.0 L 317.7 110.0 C 317.7 114.5 314.1 118.1 309.6 118.1 L 14.5 118.1 Z M 14.5 118.1 "></path></clipPath><g clip-path="url(#clip-125)"><path d="M 6.4 5.8 L 495.2 5.8 L 495.2 118.1 L 6.4 118.1 Z M 6.4 5.8 " fill="url(#2B6888BE-31FB-4983-ADDD-9028ED0D30F9)"></path><path d="M 6.4 118.1 L 495.2 118.1 L 495.2 5.8 L 6.4 5.8 Z M 6.4 118.1 " fill="#00D026" fill-opacity="0.50"></path></g></g><g><clipPath id="clip-126"><path d="M 2.4 5.8 L 321.7 5.8 L 321.7 118.1 L 2.4 118.1 Z M 2.4 5.8 "></path></clipPath><g clip-path="url(#clip-126)"><text xml:space="preserve" font-family="Helvetica-Bold" font-weight="bold" font-size="32.0" fill="#FEFFFE" transform="matrix(1.00, 0.00, -0.00, -1.00, 44.0, 51.0)">G</text><text xml:space="preserve" font-family="Helvetica-Bold" font-weight="bold" font-size="32.0" fill="#FEFFFE" transform="matrix(1.00, 0.00, -0.00, -1.00, 68.9, 51.0)">r</text><text xml:space="preserve" font-family="Helvetica-Bold" font-weight="bold" font-size="32.0" fill="#FEFFFE" transform="matrix(1.00, 0.00, -0.00, -1.00, 81.3, 51.0)">o</text><text xml:space="preserve" font-family="Helvetica-Bold" font-weight="bold" font-size="32.0" fill="#FEFFFE" transform="matrix(1.00, 0.00, -0.00, -1.00, 100.9, 51.0)">o</text><text xml:space="preserve" font-family="Helvetica-Bold" font-weight="bold" font-size="32.0" fill="#FEFFFE" transform="matrix(1.00, 0.00, -0.00, -1.00, 120.4, 51.0)">v</text><text xml:space="preserve" font-family="Helvetica-Bold" font-weight="bold" font-size="32.0" fill="#FEFFFE" transform="matrix(1.00, 0.00, -0.00, -1.00, 138.2, 51.0)">y</text><text xml:space="preserve" font-family="Helvetica-Bold" font-weight="bold" font-size="32.0" fill="#FEFFFE" transform="matrix(1.00, 0.00, -0.00, -1.00, 156.0, 51.0)"> </text><text xml:space="preserve" font-family="Helvetica-Bold" font-weight="bold" font-size="32.0" fill="#FEFFFE" transform="matrix(1.00, 0.00, -0.00, -1.00, 164.9, 51.0)">c</text><text xml:space="preserve" font-family="Helvetica-Bold" font-weight="bold" font-size="32.0" fill="#FEFFFE" transform="matrix(1.00, 0.00, -0.00, -1.00, 182.7, 51.0)">l</text><text xml:space="preserve" font-family="Helvetica-Bold" font-weight="bold" font-size="32.0" fill="#FEFFFE" transform="matrix(1.00, 0.00, -0.00, -1.00, 191.6, 51.0)">a</text><text xml:space="preserve" font-family="Helvetica-Bold" font-weight="bold" font-size="32.0" fill="#FEFFFE" transform="matrix(1.00, 0.00, -0.00, -1.00, 209.3, 51.0)">s</text><text xml:space="preserve" font-family="Helvetica-Bold" font-weight="bold" font-size="32.0" fill="#FEFFFE" transform="matrix(1.00, 0.00, -0.00, -1.00, 227.1, 51.0)">s</text><text xml:space="preserve" font-family="Helvetica-Bold" font-weight="bold" font-size="32.0" fill="#FEFFFE" transform="matrix(1.00, 0.00, -0.00, -1.00, 244.9, 51.0)">e</text><text xml:space="preserve" font-family="Helvetica-Bold" font-weight="bold" font-size="32.0" fill="#FEFFFE" transform="matrix(1.00, 0.00, -0.00, -1.00, 262.7, 51.0)">s</text></g></g></g></svg>