<?xml version="1.0" encoding="UTF-8" standalone="no"?><svg xmlns="http://www.w3.org/2000/svg" xmlns:xlink="http://www.w3.org/1999/xlink" clip-rule="evenodd" stroke-miterlimit="4.00" viewBox="0 0 377 209"><desc>SVG generated by Keynote</desc><defs><pattern id="B318CDE7-8D4C-4D67-9583-40791233D3CB" patternUnits="userSpaceOnUse" width="300" height="300" viewBox="0 0 300 300" patternTransform="matrix(1.000000, 0.000000, 0.000000, -1.000000, 6.127666, 203.915800)"><image xlink:href="../../161B0B54-7FD3-4E94-A586-B260162458D2/assets/90096E66F30E4D38552F9ACA9C23E8B7.jpeg" width="300.00" height="300.00"></image></pattern></defs><g transform="matrix(1.00, 0.00, -0.00, -1.00, 0.0, 209.0)"><image xlink:href="0DD200A07C166E3E5B8A86F882A0CE27.png" width="372.00" height="206.00" transform="matrix(1.00, 0.00, -0.00, -1.00, 3.1, 207.9)" opacity="0.50"></image><g><clipPath id="clip-123"><path d="M 14.2 203.9 C 9.7 203.9 6.1 200.3 6.1 195.9 L 6.1 99.7 C 6.1 95.2 9.7 91.6 14.2 91.6 L 293.5 91.6 L 370.3 5.7 L 317.4 123.7 L 317.4 195.9 C 317.4 200.3 313.8 203.9 309.3 203.9 L 14.2 203.9 Z M 14.2 203.9 "></path></clipPath><g clip-path="url(#clip-123)"><path d="M 6.1 5.7 L 370.3 5.7 L 370.3 203.9 L 6.1 203.9 Z M 6.1 5.7 " fill="url(#B318CDE7-8D4C-4D67-9583-40791233D3CB)"></path><path d="M 6.1 203.9 L 370.3 203.9 L 370.3 5.7 L 6.1 5.7 Z M 6.1 203.9 " fill="#00D026" fill-opacity="0.50"></path></g></g><g><clipPath id="clip-124"><path d="M 2.1 91.6 L 321.4 91.6 L 321.4 203.9 L 2.1 203.9 Z M 2.1 91.6 "></path></clipPath><g clip-path="url(#clip-124)"><text xml:space="preserve" font-family="Helvetica-Bold" font-weight="bold" font-size="32.0" fill="#FEFFFE" transform="matrix(1.00, 0.00, -0.00, -1.00, 36.0, 137.0)">N</text><text xml:space="preserve" font-family="Helvetica-Bold" font-weight="bold" font-size="32.0" fill="#FEFFFE" transform="matrix(1.00, 0.00, -0.00, -1.00, 59.1, 137.0)">o</text><text xml:space="preserve" font-family="Helvetica-Bold" font-weight="bold" font-size="32.0" fill="#FEFFFE" transform="matrix(1.00, 0.00, -0.00, -1.00, 78.7, 137.0)">n</text><text xml:space="preserve" font-family="Helvetica-Bold" font-weight="bold" font-size="32.0" fill="#FEFFFE" transform="matrix(1.00, 0.00, -0.00, -1.00, 98.2, 137.0)">-</text><text xml:space="preserve" font-family="Helvetica-Bold" font-weight="bold" font-size="32.0" fill="#FEFFFE" transform="matrix(1.00, 0.00, -0.00, -1.00, 108.9, 137.0)">g</text><text xml:space="preserve" font-family="Helvetica-Bold" font-weight="bold" font-size="32.0" fill="#FEFFFE" transform="matrix(1.00, 0.00, -0.00, -1.00, 128.4, 137.0)">r</text><text xml:space="preserve" font-family="Helvetica-Bold" font-weight="bold" font-size="32.0" fill="#FEFFFE" transform="matrix(1.00, 0.00, -0.00, -1.00, 140.9, 137.0)">o</text><text xml:space="preserve" font-family="Helvetica-Bold" font-weight="bold" font-size="32.0" fill="#FEFFFE" transform="matrix(1.00, 0.00, -0.00, -1.00, 160.4, 137.0)">o</text><text xml:space="preserve" font-family="Helvetica-Bold" font-weight="bold" font-size="32.0" fill="#FEFFFE" transform="matrix(1.00, 0.00, -0.00, -1.00, 179.9, 137.0)">v</text><text xml:space="preserve" font-family="Helvetica-Bold" font-weight="bold" font-size="32.0" fill="#FEFFFE" transform="matrix(1.00, 0.00, -0.00, -1.00, 197.7, 137.0)">y</text><text xml:space="preserve" font-family="Helvetica-Bold" font-weight="bold" font-size="32.0" fill="#FEFFFE" transform="matrix(1.00, 0.00, -0.00, -1.00, 215.5, 137.0)"> </text><text xml:space="preserve" font-family="Helvetica-Bold" font-weight="bold" font-size="32.0" fill="#FEFFFE" transform="matrix(1.00, 0.00, -0.00, -1.00, 224.4, 137.0)">ï¬</text><text xml:space="preserve" font-family="Helvetica-Bold" font-weight="bold" font-size="32.0" fill="#FEFFFE" transform="matrix(1.00, 0.00, -0.00, -1.00, 244.0, 137.0)">l</text><text xml:space="preserve" font-family="Helvetica-Bold" font-weight="bold" font-size="32.0" fill="#FEFFFE" transform="matrix(1.00, 0.00, -0.00, -1.00, 252.8, 137.0)">e</text><text xml:space="preserve" font-family="Helvetica-Bold" font-weight="bold" font-size="32.0" fill="#FEFFFE" transform="matrix(1.00, 0.00, -0.00, -1.00, 270.7, 137.0)">s</text></g></g></g></svg>