<?xml version="1.0" encoding="UTF-8" standalone="no"?><svg xmlns="http://www.w3.org/2000/svg" xmlns:xlink="http://www.w3.org/1999/xlink" clip-rule="evenodd" stroke-miterlimit="4.00" viewBox="0 0 1920 1080"><desc>SVG generated by Keynote</desc><defs><pattern id="3D555246-8358-447E-9D40-CF43D7C77C83" patternUnits="userSpaceOnUse" width="300" height="300" viewBox="0 0 300 300" patternTransform="matrix(1.000000, 0.000000, 0.000000, -1.000000, 891.343900, 826.331000)"><image xlink:href="../../161B0B54-7FD3-4E94-A586-B260162458D2/assets/90096E66F30E4D38552F9ACA9C23E8B7.jpeg" width="300.00" height="300.00"></image></pattern><pattern id="830EC6EE-02ED-487B-BB9C-5D9E6CF05665" patternUnits="userSpaceOnUse" width="300" height="300" viewBox="0 0 300 300" patternTransform="matrix(1.000000, 0.000000, 0.000000, -1.000000, 181.127700, 448.915800)"><image xlink:href="../../161B0B54-7FD3-4E94-A586-B260162458D2/assets/90096E66F30E4D38552F9ACA9C23E8B7.jpeg" width="300.00" height="300.00"></image></pattern><pattern id="8F987313-6CE6-4F50-8887-5CCE1D632A07" patternUnits="userSpaceOnUse" width="300" height="300" viewBox="0 0 300 300" patternTransform="matrix(1.000000, 0.000000, 0.000000, -1.000000, 58.440640, 269.076000)"><image xlink:href="../../161B0B54-7FD3-4E94-A586-B260162458D2/assets/90096E66F30E4D38552F9ACA9C23E8B7.jpeg" width="300.00" height="300.00"></image></pattern><pattern id="EE2BE755-7E85-45E1-9732-8DFAD3A7C74D" patternUnits="userSpaceOnUse" width="300" height="300" viewBox="0 0 300 300" patternTransform="matrix(1.000000, 0.000000, 0.000000, -1.000000, 183.518300, 144.754100)"><image xlink:href="../../161B0B54-7FD3-4E94-A586-B260162458D2/assets/90096E66F30E4D38552F9ACA9C23E8B7.jpeg" width="300.00" height="300.00"></image></pattern><pattern id="0708B833-0B53-4693-B668-9F2C6EB06698" patternUnits="userSpaceOnUse" width="300" height="300" viewBox="0 0 300 300" patternTransform="matrix(1.000000, 0.000000, 0.000000, -1.000000, 690.546600, 495.828100)"><image xlink:href="../../161B0B54-7FD3-4E94-A586-B260162458D2/assets/90096E66F30E4D38552F9ACA9C23E8B7.jpeg" width="300.00" height="300.00"></image></pattern></defs><g transform="matrix(1.00, 0.00, -0.00, -1.00, 0.0, 1080.0)"><path d="M 0.0 1080.0 L 1920.0 1080.0 L 1920.0 0.0 L 0.0 0.0 Z M 0.0 1080.0 " fill="#FEFFFF"></path><image xlink:href="../../8B6A85DE-7358-456A-BA9A-7C89C91FFBEF/assets/6126E2E5CE55C7F616DC5CB41BB5C474.png" width="563.00" height="503.00" transform="matrix(1.61, 0.00, -0.00, -1.61, 519.0, 867.0)"></image><text xml:space="preserve" font-family="Helvetica-Light" font-size="112.0" fill="#000000" transform="matrix(1.00, 0.00, -0.00, -1.00, 428.0, 874.0)">S</text><text xml:space="preserve" font-family="Helvetica-Light" font-size="112.0" fill="#000000" transform="matrix(1.00, 0.00, -0.00, -1.00, 496.4, 874.0)">h</text><text xml:space="preserve" font-family="Helvetica-Light" font-size="112.0" fill="#000000" transform="matrix(1.00, 0.00, -0.00, -1.00, 558.7, 874.0)">a</text><text xml:space="preserve" font-family="Helvetica-Light" font-size="112.0" fill="#000000" transform="matrix(1.00, 0.00, -0.00, -1.00, 621.0, 874.0)">r</text><text xml:space="preserve" font-family="Helvetica-Light" font-size="112.0" fill="#000000" transform="matrix(1.00, 0.00, -0.00, -1.00, 656.3, 874.0)">e</text><text xml:space="preserve" font-family="Helvetica-Light" font-size="112.0" fill="#000000" transform="matrix(1.00, 0.00, -0.00, -1.00, 718.5, 874.0)">d</text><text xml:space="preserve" font-family="Helvetica-Light" font-size="112.0" fill="#000000" transform="matrix(1.00, 0.00, -0.00, -1.00, 787.0, 874.0)"> </text><text xml:space="preserve" font-family="Helvetica-Light" font-size="112.0" fill="#000000" transform="matrix(1.00, 0.00, -0.00, -1.00, 818.1, 874.0)">S</text><text xml:space="preserve" font-family="Helvetica-Light" font-size="112.0" fill="#000000" transform="matrix(1.00, 0.00, -0.00, -1.00, 886.5, 874.0)">c</text><text xml:space="preserve" font-family="Helvetica-Light" font-size="112.0" fill="#000000" transform="matrix(1.00, 0.00, -0.00, -1.00, 948.8, 874.0)">r</text><text xml:space="preserve" font-family="Helvetica-Light" font-size="112.0" fill="#000000" transform="matrix(1.00, 0.00, -0.00, -1.00, 986.1, 874.0)">i</text><text xml:space="preserve" font-family="Helvetica-Light" font-size="112.0" fill="#000000" transform="matrix(1.00, 0.00, -0.00, -1.00, 1011.0, 874.0)">p</text><text xml:space="preserve" font-family="Helvetica-Light" font-size="112.0" fill="#000000" transform="matrix(1.00, 0.00, -0.00, -1.00, 1079.4, 874.0)">t</text><text xml:space="preserve" font-family="Helvetica-Light" font-size="112.0" fill="#000000" transform="matrix(1.00, 0.00, -0.00, -1.00, 1110.5, 874.0)"> </text><text xml:space="preserve" font-family="Helvetica-Light" font-size="112.0" fill="#000000" transform="matrix(1.00, 0.00, -0.00, -1.00, 1141.7, 874.0)">L</text><text xml:space="preserve" font-family="Helvetica-Light" font-size="112.0" fill="#000000" transform="matrix(1.00, 0.00, -0.00, -1.00, 1203.9, 874.0)">i</text><text xml:space="preserve" font-family="Helvetica-Light" font-size="112.0" fill="#000000" transform="matrix(1.00, 0.00, -0.00, -1.00, 1228.8, 874.0)">b</text><text xml:space="preserve" font-family="Helvetica-Light" font-size="112.0" fill="#000000" transform="matrix(1.00, 0.00, -0.00, -1.00, 1297.2, 874.0)">r</text><text xml:space="preserve" font-family="Helvetica-Light" font-size="112.0" fill="#000000" transform="matrix(1.00, 0.00, -0.00, -1.00, 1334.5, 874.0)">a</text><text xml:space="preserve" font-family="Helvetica-Light" font-size="112.0" fill="#000000" transform="matrix(1.00, 0.00, -0.00, -1.00, 1396.8, 874.0)">r</text><text xml:space="preserve" font-family="Helvetica-Light" font-size="112.0" fill="#000000" transform="matrix(1.00, 0.00, -0.00, -1.00, 1436.1, 874.0)">y</text><image xlink:href="../../835375A3-7047-4E8B-8F00-5E6CFA93B7DF/assets/EDB051A271AF708BF7584011D072E0FD.png" width="628.00" height="243.00" transform="matrix(1.00, 0.00, -0.00, -1.00, 888.3, 830.3)" opacity="0.50"></image><g><clipPath id="clip-131"><path d="M 891.3 826.3 L 1199.8 704.4 L 1199.8 599.3 C 1199.8 594.8 1203.4 591.2 1207.8 591.2 L 1502.9 591.2 C 1507.4 591.2 1511.0 594.8 1511.0 599.3 L 1511.0 719.0 C 1511.0 723.5 1507.4 727.1 1502.9 727.1 L 1239.8 727.1 L 891.3 826.3 Z M 891.3 826.3 "></path></clipPath><g clip-path="url(#clip-131)"><path d="M 891.3 591.2 L 1511.0 591.2 L 1511.0 826.3 L 891.3 826.3 Z M 891.3 591.2 " fill="url(#3D555246-8358-447E-9D40-CF43D7C77C83)"></path><path d="M 891.3 826.3 L 1511.0 826.3 L 1511.0 591.2 L 891.3 591.2 Z M 891.3 826.3 " fill="#00D026" fill-opacity="0.50"></path></g></g><g><clipPath id="clip-132"><path d="M 1195.8 591.2 L 1515.0 591.2 L 1515.0 727.1 L 1195.8 727.1 Z M 1195.8 591.2 "></path></clipPath><g clip-path="url(#clip-132)"><text xml:space="preserve" font-family="Helvetica-Bold" font-weight="bold" font-size="32.0" fill="#FEFFFE" transform="matrix(1.00, 0.00, -0.00, -1.00, 1226.0, 647.0)">I</text><text xml:space="preserve" font-family="Helvetica-Bold" font-weight="bold" font-size="32.0" fill="#FEFFFE" transform="matrix(1.00, 0.00, -0.00, -1.00, 1234.9, 647.0)">n</text><text xml:space="preserve" font-family="Helvetica-Bold" font-weight="bold" font-size="32.0" fill="#FEFFFE" transform="matrix(1.00, 0.00, -0.00, -1.00, 1254.4, 647.0)"> </text><text xml:space="preserve" font-family="Helvetica-Bold" font-weight="bold" font-size="32.0" fill="#FEFFFE" transform="matrix(1.00, 0.00, -0.00, -1.00, 1263.3, 647.0)">s</text><text xml:space="preserve" font-family="Helvetica-Bold" font-weight="bold" font-size="32.0" fill="#FEFFFE" transform="matrix(1.00, 0.00, -0.00, -1.00, 1281.1, 647.0)">o</text><text xml:space="preserve" font-family="Helvetica-Bold" font-weight="bold" font-size="32.0" fill="#FEFFFE" transform="matrix(1.00, 0.00, -0.00, -1.00, 1300.7, 647.0)">u</text><text xml:space="preserve" font-family="Helvetica-Bold" font-weight="bold" font-size="32.0" fill="#FEFFFE" transform="matrix(1.00, 0.00, -0.00, -1.00, 1320.2, 647.0)">r</text><text xml:space="preserve" font-family="Helvetica-Bold" font-weight="bold" font-size="32.0" fill="#FEFFFE" transform="matrix(1.00, 0.00, -0.00, -1.00, 1332.7, 647.0)">c</text><text xml:space="preserve" font-family="Helvetica-Bold" font-weight="bold" font-size="32.0" fill="#FEFFFE" transform="matrix(1.00, 0.00, -0.00, -1.00, 1350.5, 647.0)">e</text><text xml:space="preserve" font-family="Helvetica-Bold" font-weight="bold" font-size="32.0" fill="#FEFFFE" transform="matrix(1.00, 0.00, -0.00, -1.00, 1368.3, 647.0)"> </text><text xml:space="preserve" font-family="Helvetica-Bold" font-weight="bold" font-size="32.0" fill="#FEFFFE" transform="matrix(1.00, 0.00, -0.00, -1.00, 1377.1, 647.0)">c</text><text xml:space="preserve" font-family="Helvetica-Bold" font-weight="bold" font-size="32.0" fill="#FEFFFE" transform="matrix(1.00, 0.00, -0.00, -1.00, 1394.9, 647.0)">o</text><text xml:space="preserve" font-family="Helvetica-Bold" font-weight="bold" font-size="32.0" fill="#FEFFFE" transform="matrix(1.00, 0.00, -0.00, -1.00, 1414.5, 647.0)">n</text><text xml:space="preserve" font-family="Helvetica-Bold" font-weight="bold" font-size="32.0" fill="#FEFFFE" transform="matrix(1.00, 0.00, -0.00, -1.00, 1434.0, 647.0)">t</text><text xml:space="preserve" font-family="Helvetica-Bold" font-weight="bold" font-size="32.0" fill="#FEFFFE" transform="matrix(1.00, 0.00, -0.00, -1.00, 1444.7, 647.0)">r</text><text xml:space="preserve" font-family="Helvetica-Bold" font-weight="bold" font-size="32.0" fill="#FEFFFE" transform="matrix(1.00, 0.00, -0.00, -1.00, 1457.1, 647.0)">o</text><text xml:space="preserve" font-family="Helvetica-Bold" font-weight="bold" font-size="32.0" fill="#FEFFFE" transform="matrix(1.00, 0.00, -0.00, -1.00, 1476.7, 647.0)">l</text></g></g><image xlink:href="../../835375A3-7047-4E8B-8F00-5E6CFA93B7DF/assets/0DD200A07C166E3E5B8A86F882A0CE27.png" width="372.00" height="206.00" transform="matrix(1.00, 0.00, -0.00, -1.00, 178.1, 452.9)" opacity="0.50"></image><g><clipPath id="clip-133"><path d="M 189.2 448.9 C 184.7 448.9 181.1 445.3 181.1 440.9 L 181.1 344.7 C 181.1 340.2 184.7 336.6 189.2 336.6 L 468.5 336.6 L 545.3 250.7 L 492.4 368.7 L 492.4 440.9 C 492.4 445.3 488.8 448.9 484.3 448.9 L 189.2 448.9 Z M 189.2 448.9 "></path></clipPath><g clip-path="url(#clip-133)"><path d="M 181.1 250.7 L 545.3 250.7 L 545.3 448.9 L 181.1 448.9 Z M 181.1 250.7 " fill="url(#830EC6EE-02ED-487B-BB9C-5D9E6CF05665)"></path><path d="M 181.1 448.9 L 545.3 448.9 L 545.3 250.7 L 181.1 250.7 Z M 181.1 448.9 " fill="#00D026" fill-opacity="0.50"></path></g></g><g><clipPath id="clip-134"><path d="M 177.1 336.6 L 496.4 336.6 L 496.4 448.9 L 177.1 448.9 Z M 177.1 336.6 "></path></clipPath><g clip-path="url(#clip-134)"><text xml:space="preserve" font-family="Helvetica-Bold" font-weight="bold" font-size="32.0" fill="#FEFFFE" transform="matrix(1.00, 0.00, -0.00, -1.00, 211.0, 382.0)">N</text><text xml:space="preserve" font-family="Helvetica-Bold" font-weight="bold" font-size="32.0" fill="#FEFFFE" transform="matrix(1.00, 0.00, -0.00, -1.00, 234.1, 382.0)">o</text><text xml:space="preserve" font-family="Helvetica-Bold" font-weight="bold" font-size="32.0" fill="#FEFFFE" transform="matrix(1.00, 0.00, -0.00, -1.00, 253.7, 382.0)">n</text><text xml:space="preserve" font-family="Helvetica-Bold" font-weight="bold" font-size="32.0" fill="#FEFFFE" transform="matrix(1.00, 0.00, -0.00, -1.00, 273.2, 382.0)">-</text><text xml:space="preserve" font-family="Helvetica-Bold" font-weight="bold" font-size="32.0" fill="#FEFFFE" transform="matrix(1.00, 0.00, -0.00, -1.00, 283.9, 382.0)">g</text><text xml:space="preserve" font-family="Helvetica-Bold" font-weight="bold" font-size="32.0" fill="#FEFFFE" transform="matrix(1.00, 0.00, -0.00, -1.00, 303.4, 382.0)">r</text><text xml:space="preserve" font-family="Helvetica-Bold" font-weight="bold" font-size="32.0" fill="#FEFFFE" transform="matrix(1.00, 0.00, -0.00, -1.00, 315.9, 382.0)">o</text><text xml:space="preserve" font-family="Helvetica-Bold" font-weight="bold" font-size="32.0" fill="#FEFFFE" transform="matrix(1.00, 0.00, -0.00, -1.00, 335.4, 382.0)">o</text><text xml:space="preserve" font-family="Helvetica-Bold" font-weight="bold" font-size="32.0" fill="#FEFFFE" transform="matrix(1.00, 0.00, -0.00, -1.00, 354.9, 382.0)">v</text><text xml:space="preserve" font-family="Helvetica-Bold" font-weight="bold" font-size="32.0" fill="#FEFFFE" transform="matrix(1.00, 0.00, -0.00, -1.00, 372.7, 382.0)">y</text><text xml:space="preserve" font-family="Helvetica-Bold" font-weight="bold" font-size="32.0" fill="#FEFFFE" transform="matrix(1.00, 0.00, -0.00, -1.00, 390.5, 382.0)"> </text><text xml:space="preserve" font-family="Helvetica-Bold" font-weight="bold" font-size="32.0" fill="#FEFFFE" transform="matrix(1.00, 0.00, -0.00, -1.00, 399.4, 382.0)">ï¬</text><text xml:space="preserve" font-family="Helvetica-Bold" font-weight="bold" font-size="32.0" fill="#FEFFFE" transform="matrix(1.00, 0.00, -0.00, -1.00, 419.0, 382.0)">l</text><text xml:space="preserve" font-family="Helvetica-Bold" font-weight="bold" font-size="32.0" fill="#FEFFFE" transform="matrix(1.00, 0.00, -0.00, -1.00, 427.8, 382.0)">e</text><text xml:space="preserve" font-family="Helvetica-Bold" font-weight="bold" font-size="32.0" fill="#FEFFFE" transform="matrix(1.00, 0.00, -0.00, -1.00, 445.7, 382.0)">s</text></g></g><image xlink:href="../../835375A3-7047-4E8B-8F00-5E6CFA93B7DF/assets/963C82F86E743F4180A2D08CAD7356FA.png" width="497.00" height="120.00" transform="matrix(1.00, 0.00, -0.00, -1.00, 55.4, 273.1)" opacity="0.50"></image><g><clipPath id="clip-135"><path d="M 66.5 269.1 C 62.0 269.1 58.4 265.5 58.4 261.0 L 58.4 164.9 C 58.4 160.4 62.0 156.8 66.5 156.8 L 361.6 156.8 C 366.1 156.8 369.7 160.4 369.7 164.9 L 369.7 183.6 L 547.2 199.8 L 369.7 216.0 L 369.7 261.0 C 369.7 265.5 366.1 269.1 361.6 269.1 L 66.5 269.1 Z M 66.5 269.1 "></path></clipPath><g clip-path="url(#clip-135)"><path d="M 58.4 156.8 L 547.2 156.8 L 547.2 269.1 L 58.4 269.1 Z M 58.4 156.8 " fill="url(#8F987313-6CE6-4F50-8887-5CCE1D632A07)"></path><path d="M 58.4 269.1 L 547.2 269.1 L 547.2 156.8 L 58.4 156.8 Z M 58.4 269.1 " fill="#00D026" fill-opacity="0.50"></path></g></g><g><clipPath id="clip-136"><path d="M 54.4 156.8 L 373.7 156.8 L 373.7 269.1 L 54.4 269.1 Z M 54.4 156.8 "></path></clipPath><g clip-path="url(#clip-136)"><text xml:space="preserve" font-family="Helvetica-Bold" font-weight="bold" font-size="32.0" fill="#FEFFFE" transform="matrix(1.00, 0.00, -0.00, -1.00, 96.0, 202.0)">G</text><text xml:space="preserve" font-family="Helvetica-Bold" font-weight="bold" font-size="32.0" fill="#FEFFFE" transform="matrix(1.00, 0.00, -0.00, -1.00, 120.9, 202.0)">r</text><text xml:space="preserve" font-family="Helvetica-Bold" font-weight="bold" font-size="32.0" fill="#FEFFFE" transform="matrix(1.00, 0.00, -0.00, -1.00, 133.3, 202.0)">o</text><text xml:space="preserve" font-family="Helvetica-Bold" font-weight="bold" font-size="32.0" fill="#FEFFFE" transform="matrix(1.00, 0.00, -0.00, -1.00, 152.9, 202.0)">o</text><text xml:space="preserve" font-family="Helvetica-Bold" font-weight="bold" font-size="32.0" fill="#FEFFFE" transform="matrix(1.00, 0.00, -0.00, -1.00, 172.4, 202.0)">v</text><text xml:space="preserve" font-family="Helvetica-Bold" font-weight="bold" font-size="32.0" fill="#FEFFFE" transform="matrix(1.00, 0.00, -0.00, -1.00, 190.2, 202.0)">y</text><text xml:space="preserve" font-family="Helvetica-Bold" font-weight="bold" font-size="32.0" fill="#FEFFFE" transform="matrix(1.00, 0.00, -0.00, -1.00, 208.0, 202.0)"> </text><text xml:space="preserve" font-family="Helvetica-Bold" font-weight="bold" font-size="32.0" fill="#FEFFFE" transform="matrix(1.00, 0.00, -0.00, -1.00, 216.9, 202.0)">c</text><text xml:space="preserve" font-family="Helvetica-Bold" font-weight="bold" font-size="32.0" fill="#FEFFFE" transform="matrix(1.00, 0.00, -0.00, -1.00, 234.7, 202.0)">l</text><text xml:space="preserve" font-family="Helvetica-Bold" font-weight="bold" font-size="32.0" fill="#FEFFFE" transform="matrix(1.00, 0.00, -0.00, -1.00, 243.6, 202.0)">a</text><text xml:space="preserve" font-family="Helvetica-Bold" font-weight="bold" font-size="32.0" fill="#FEFFFE" transform="matrix(1.00, 0.00, -0.00, -1.00, 261.3, 202.0)">s</text><text xml:space="preserve" font-family="Helvetica-Bold" font-weight="bold" font-size="32.0" fill="#FEFFFE" transform="matrix(1.00, 0.00, -0.00, -1.00, 279.1, 202.0)">s</text><text xml:space="preserve" font-family="Helvetica-Bold" font-weight="bold" font-size="32.0" fill="#FEFFFE" transform="matrix(1.00, 0.00, -0.00, -1.00, 296.9, 202.0)">e</text><text xml:space="preserve" font-family="Helvetica-Bold" font-weight="bold" font-size="32.0" fill="#FEFFFE" transform="matrix(1.00, 0.00, -0.00, -1.00, 314.7, 202.0)">s</text></g></g><image xlink:href="../../835375A3-7047-4E8B-8F00-5E6CFA93B7DF/assets/FE6C704BC84177A1DAF663B47DBC418D.png" width="368.00" height="141.00" transform="matrix(1.00, 0.00, -0.00, -1.00, 180.5, 148.8)" opacity="0.50"></image><g><clipPath id="clip-137"><path d="M 543.6 144.8 L 432.5 124.3 L 191.6 124.3 C 187.1 124.3 183.5 120.7 183.5 116.3 L 183.5 20.1 C 183.5 15.6 187.1 12.0 191.6 12.0 L 486.7 12.0 C 491.2 12.0 494.8 15.6 494.8 20.1 L 494.8 99.5 L 543.6 144.8 Z M 543.6 144.8 "></path></clipPath><g clip-path="url(#clip-137)"><path d="M 183.5 12.0 L 543.6 12.0 L 543.6 144.8 L 183.5 144.8 Z M 183.5 12.0 " fill="url(#EE2BE755-7E85-45E1-9732-8DFAD3A7C74D)"></path><path d="M 183.5 144.8 L 543.6 144.8 L 543.6 12.0 L 183.5 12.0 Z M 183.5 144.8 " fill="#00D026" fill-opacity="0.50"></path></g></g><g><clipPath id="clip-138"><path d="M 179.5 12.0 L 498.8 12.0 L 498.8 124.3 L 179.5 124.3 Z M 179.5 12.0 "></path></clipPath><g clip-path="url(#clip-138)"><text xml:space="preserve" font-family="Helvetica-Bold" font-weight="bold" font-size="32.0" fill="#FEFFFE" transform="matrix(1.00, 0.00, -0.00, -1.00, 229.0, 76.0)">G</text><text xml:space="preserve" font-family="Helvetica-Bold" font-weight="bold" font-size="32.0" fill="#FEFFFE" transform="matrix(1.00, 0.00, -0.00, -1.00, 253.9, 76.0)">l</text><text xml:space="preserve" font-family="Helvetica-Bold" font-weight="bold" font-size="32.0" fill="#FEFFFE" transform="matrix(1.00, 0.00, -0.00, -1.00, 262.8, 76.0)">o</text><text xml:space="preserve" font-family="Helvetica-Bold" font-weight="bold" font-size="32.0" fill="#FEFFFE" transform="matrix(1.00, 0.00, -0.00, -1.00, 282.3, 76.0)">b</text><text xml:space="preserve" font-family="Helvetica-Bold" font-weight="bold" font-size="32.0" fill="#FEFFFE" transform="matrix(1.00, 0.00, -0.00, -1.00, 301.8, 76.0)">a</text><text xml:space="preserve" font-family="Helvetica-Bold" font-weight="bold" font-size="32.0" fill="#FEFFFE" transform="matrix(1.00, 0.00, -0.00, -1.00, 319.6, 76.0)">l</text><text xml:space="preserve" font-family="Helvetica-Bold" font-weight="bold" font-size="32.0" fill="#FEFFFE" transform="matrix(1.00, 0.00, -0.00, -1.00, 328.5, 76.0)"> </text><text xml:space="preserve" font-family="Helvetica-Bold" font-weight="bold" font-size="32.0" fill="#FEFFFE" transform="matrix(1.00, 0.00, -0.00, -1.00, 337.4, 76.0)">G</text><text xml:space="preserve" font-family="Helvetica-Bold" font-weight="bold" font-size="32.0" fill="#FEFFFE" transform="matrix(1.00, 0.00, -0.00, -1.00, 362.3, 76.0)">r</text><text xml:space="preserve" font-family="Helvetica-Bold" font-weight="bold" font-size="32.0" fill="#FEFFFE" transform="matrix(1.00, 0.00, -0.00, -1.00, 374.7, 76.0)">o</text><text xml:space="preserve" font-family="Helvetica-Bold" font-weight="bold" font-size="32.0" fill="#FEFFFE" transform="matrix(1.00, 0.00, -0.00, -1.00, 394.3, 76.0)">o</text><text xml:space="preserve" font-family="Helvetica-Bold" font-weight="bold" font-size="32.0" fill="#FEFFFE" transform="matrix(1.00, 0.00, -0.00, -1.00, 413.8, 76.0)">v</text><text xml:space="preserve" font-family="Helvetica-Bold" font-weight="bold" font-size="32.0" fill="#FEFFFE" transform="matrix(1.00, 0.00, -0.00, -1.00, 431.6, 76.0)">y</text><text xml:space="preserve" font-family="Helvetica-Bold" font-weight="bold" font-size="32.0" fill="#FEFFFE" transform="matrix(1.00, 0.00, -0.00, -1.00, 449.4, 76.0)"> </text><text xml:space="preserve" font-family="Helvetica-Bold" font-weight="bold" font-size="32.0" fill="#FEFFFE" transform="matrix(1.00, 0.00, -0.00, -1.00, 287.0, 38.0)">s</text><text xml:space="preserve" font-family="Helvetica-Bold" font-weight="bold" font-size="32.0" fill="#FEFFFE" transform="matrix(1.00, 0.00, -0.00, -1.00, 304.8, 38.0)">c</text><text xml:space="preserve" font-family="Helvetica-Bold" font-weight="bold" font-size="32.0" fill="#FEFFFE" transform="matrix(1.00, 0.00, -0.00, -1.00, 322.6, 38.0)">r</text><text xml:space="preserve" font-family="Helvetica-Bold" font-weight="bold" font-size="32.0" fill="#FEFFFE" transform="matrix(1.00, 0.00, -0.00, -1.00, 335.1, 38.0)">i</text><text xml:space="preserve" font-family="Helvetica-Bold" font-weight="bold" font-size="32.0" fill="#FEFFFE" transform="matrix(1.00, 0.00, -0.00, -1.00, 344.0, 38.0)">p</text><text xml:space="preserve" font-family="Helvetica-Bold" font-weight="bold" font-size="32.0" fill="#FEFFFE" transform="matrix(1.00, 0.00, -0.00, -1.00, 363.5, 38.0)">t</text><text xml:space="preserve" font-family="Helvetica-Bold" font-weight="bold" font-size="32.0" fill="#FEFFFE" transform="matrix(1.00, 0.00, -0.00, -1.00, 374.1, 38.0)">s</text></g></g><image xlink:href="../../835375A3-7047-4E8B-8F00-5E6CFA93B7DF/assets/86CE4AB4ED170F1EF39FE216AB9C1AA7.png" width="689.00" height="136.00" transform="matrix(1.00, 0.00, -0.00, -1.00, 687.5, 499.8)" opacity="0.50"></image><g><clipPath id="clip-139"><path d="M 1068.0 495.8 C 1063.6 495.8 1060.0 492.2 1060.0 487.8 L 1060.0 458.8 L 690.5 442.7 L 1060.0 426.5 L 1060.0 376.3 C 1060.0 371.9 1063.6 368.3 1068.0 368.3 L 1363.2 368.3 C 1367.6 368.3 1371.3 371.9 1371.3 376.3 L 1371.3 487.8 C 1371.3 492.2 1367.6 495.8 1363.2 495.8 L 1068.0 495.8 Z M 1068.0 495.8 "></path></clipPath><g clip-path="url(#clip-139)"><path d="M 690.5 368.3 L 1371.3 368.3 L 1371.3 495.8 L 690.5 495.8 Z M 690.5 368.3 " fill="url(#0708B833-0B53-4693-B668-9F2C6EB06698)"></path><path d="M 690.5 495.8 L 1371.3 495.8 L 1371.3 368.3 L 690.5 368.3 Z M 690.5 495.8 " fill="#00D026" fill-opacity="0.50"></path></g></g><g><clipPath id="clip-140"><path d="M 1056.0 368.3 L 1375.3 368.3 L 1375.3 495.8 L 1056.0 495.8 Z M 1056.0 368.3 "></path></clipPath><g clip-path="url(#clip-140)"><text xml:space="preserve" font-family="Helvetica-Bold" font-weight="bold" font-size="32.0" fill="#FEFFFE" transform="matrix(1.00, 0.00, -0.00, -1.00, 1074.0, 439.0)">B</text><text xml:space="preserve" font-family="Helvetica-Bold" font-weight="bold" font-size="32.0" fill="#FEFFFE" transform="matrix(1.00, 0.00, -0.00, -1.00, 1097.1, 439.0)">r</text><text xml:space="preserve" font-family="Helvetica-Bold" font-weight="bold" font-size="32.0" fill="#FEFFFE" transform="matrix(1.00, 0.00, -0.00, -1.00, 1109.6, 439.0)">a</text><text xml:space="preserve" font-family="Helvetica-Bold" font-weight="bold" font-size="32.0" fill="#FEFFFE" transform="matrix(1.00, 0.00, -0.00, -1.00, 1127.4, 439.0)">n</text><text xml:space="preserve" font-family="Helvetica-Bold" font-weight="bold" font-size="32.0" fill="#FEFFFE" transform="matrix(1.00, 0.00, -0.00, -1.00, 1146.9, 439.0)">c</text><text xml:space="preserve" font-family="Helvetica-Bold" font-weight="bold" font-size="32.0" fill="#FEFFFE" transform="matrix(1.00, 0.00, -0.00, -1.00, 1164.7, 439.0)">h</text><text xml:space="preserve" font-family="Helvetica-Bold" font-weight="bold" font-size="32.0" fill="#FEFFFE" transform="matrix(1.00, 0.00, -0.00, -1.00, 1184.3, 439.0)"> </text><text xml:space="preserve" font-family="Helvetica-Bold" font-weight="bold" font-size="32.0" fill="#FEFFFE" transform="matrix(1.00, 0.00, -0.00, -1.00, 1193.1, 439.0)">r</text><text xml:space="preserve" font-family="Helvetica-Bold" font-weight="bold" font-size="32.0" fill="#FEFFFE" transform="matrix(1.00, 0.00, -0.00, -1.00, 1205.6, 439.0)">e</text><text xml:space="preserve" font-family="Helvetica-Bold" font-weight="bold" font-size="32.0" fill="#FEFFFE" transform="matrix(1.00, 0.00, -0.00, -1.00, 1223.4, 439.0)">p</text><text xml:space="preserve" font-family="Helvetica-Bold" font-weight="bold" font-size="32.0" fill="#FEFFFE" transform="matrix(1.00, 0.00, -0.00, -1.00, 1243.0, 439.0)">r</text><text xml:space="preserve" font-family="Helvetica-Bold" font-weight="bold" font-size="32.0" fill="#FEFFFE" transform="matrix(1.00, 0.00, -0.00, -1.00, 1255.4, 439.0)">e</text><text xml:space="preserve" font-family="Helvetica-Bold" font-weight="bold" font-size="32.0" fill="#FEFFFE" transform="matrix(1.00, 0.00, -0.00, -1.00, 1273.2, 439.0)">s</text><text xml:space="preserve" font-family="Helvetica-Bold" font-weight="bold" font-size="32.0" fill="#FEFFFE" transform="matrix(1.00, 0.00, -0.00, -1.00, 1291.0, 439.0)">e</text><text xml:space="preserve" font-family="Helvetica-Bold" font-weight="bold" font-size="32.0" fill="#FEFFFE" transform="matrix(1.00, 0.00, -0.00, -1.00, 1308.8, 439.0)">n</text><text xml:space="preserve" font-family="Helvetica-Bold" font-weight="bold" font-size="32.0" fill="#FEFFFE" transform="matrix(1.00, 0.00, -0.00, -1.00, 1328.4, 439.0)">t</text><text xml:space="preserve" font-family="Helvetica-Bold" font-weight="bold" font-size="32.0" fill="#FEFFFE" transform="matrix(1.00, 0.00, -0.00, -1.00, 1339.0, 439.0)">s</text><text xml:space="preserve" font-family="Helvetica-Bold" font-weight="bold" font-size="32.0" fill="#FEFFFE" transform="matrix(1.00, 0.00, -0.00, -1.00, 1356.8, 439.0)"> </text><text xml:space="preserve" font-family="Helvetica-Bold" font-weight="bold" font-size="32.0" fill="#FEFFFE" transform="matrix(1.00, 0.00, -0.00, -1.00, 1105.0, 401.0)">l</text><text xml:space="preserve" font-family="Helvetica-Bold" font-weight="bold" font-size="32.0" fill="#FEFFFE" transform="matrix(1.00, 0.00, -0.00, -1.00, 1113.9, 401.0)">i</text><text xml:space="preserve" font-family="Helvetica-Bold" font-weight="bold" font-size="32.0" fill="#FEFFFE" transform="matrix(1.00, 0.00, -0.00, -1.00, 1122.8, 401.0)">b</text><text xml:space="preserve" font-family="Helvetica-Bold" font-weight="bold" font-size="32.0" fill="#FEFFFE" transform="matrix(1.00, 0.00, -0.00, -1.00, 1142.3, 401.0)">r</text><text xml:space="preserve" font-family="Helvetica-Bold" font-weight="bold" font-size="32.0" fill="#FEFFFE" transform="matrix(1.00, 0.00, -0.00, -1.00, 1154.8, 401.0)">a</text><text xml:space="preserve" font-family="Helvetica-Bold" font-weight="bold" font-size="32.0" fill="#FEFFFE" transform="matrix(1.00, 0.00, -0.00, -1.00, 1172.5, 401.0)">r</text><text xml:space="preserve" font-family="Helvetica-Bold" font-weight="bold" font-size="32.0" fill="#FEFFFE" transform="matrix(1.00, 0.00, -0.00, -1.00, 1185.0, 401.0)">y</text><text xml:space="preserve" font-family="Helvetica-Bold" font-weight="bold" font-size="32.0" fill="#FEFFFE" transform="matrix(1.00, 0.00, -0.00, -1.00, 1202.8, 401.0)"> </text><text xml:space="preserve" font-family="Helvetica-Bold" font-weight="bold" font-size="32.0" fill="#FEFFFE" transform="matrix(1.00, 0.00, -0.00, -1.00, 1211.7, 401.0)">v</text><text xml:space="preserve" font-family="Helvetica-Bold" font-weight="bold" font-size="32.0" fill="#FEFFFE" transform="matrix(1.00, 0.00, -0.00, -1.00, 1229.5, 401.0)">e</text><text xml:space="preserve" font-family="Helvetica-Bold" font-weight="bold" font-size="32.0" fill="#FEFFFE" transform="matrix(1.00, 0.00, -0.00, -1.00, 1247.2, 401.0)">r</text><text xml:space="preserve" font-family="Helvetica-Bold" font-weight="bold" font-size="32.0" fill="#FEFFFE" transform="matrix(1.00, 0.00, -0.00, -1.00, 1259.7, 401.0)">s</text><text xml:space="preserve" font-family="Helvetica-Bold" font-weight="bold" font-size="32.0" fill="#FEFFFE" transform="matrix(1.00, 0.00, -0.00, -1.00, 1277.5, 401.0)">i</text><text xml:space="preserve" font-family="Helvetica-Bold" font-weight="bold" font-size="32.0" fill="#FEFFFE" transform="matrix(1.00, 0.00, -0.00, -1.00, 1286.4, 401.0)">o</text><text xml:space="preserve" font-family="Helvetica-Bold" font-weight="bold" font-size="32.0" fill="#FEFFFE" transform="matrix(1.00, 0.00, -0.00, -1.00, 1305.9, 401.0)">n</text></g></g><text xml:space="preserve" font-family="Helvetica-Bold" font-weight="bold" font-size="45.0" fill="#FF2600" transform="matrix(1.00, 0.00, -0.00, -1.00, 88.0, 523.0)">S</text><text xml:space="preserve" font-family="Helvetica-Bold" font-weight="bold" font-size="45.0" fill="#FF2600" transform="matrix(1.00, 0.00, -0.00, -1.00, 118.0, 523.0)">t</text><text xml:space="preserve" font-family="Helvetica-Bold" font-weight="bold" font-size="45.0" fill="#FF2600" transform="matrix(1.00, 0.00, -0.00, -1.00, 133.0, 523.0)">a</text><text xml:space="preserve" font-family="Helvetica-Bold" font-weight="bold" font-size="45.0" fill="#FF2600" transform="matrix(1.00, 0.00, -0.00, -1.00, 158.0, 523.0)">n</text><text xml:space="preserve" font-family="Helvetica-Bold" font-weight="bold" font-size="45.0" fill="#FF2600" transform="matrix(1.00, 0.00, -0.00, -1.00, 185.5, 523.0)">d</text><text xml:space="preserve" font-family="Helvetica-Bold" font-weight="bold" font-size="45.0" fill="#FF2600" transform="matrix(1.00, 0.00, -0.00, -1.00, 213.0, 523.0)">a</text><text xml:space="preserve" font-family="Helvetica-Bold" font-weight="bold" font-size="45.0" fill="#FF2600" transform="matrix(1.00, 0.00, -0.00, -1.00, 238.0, 523.0)">r</text><text xml:space="preserve" font-family="Helvetica-Bold" font-weight="bold" font-size="45.0" fill="#FF2600" transform="matrix(1.00, 0.00, -0.00, -1.00, 255.6, 523.0)">d</text><text xml:space="preserve" font-family="Helvetica-Bold" font-weight="bold" font-size="45.0" fill="#FF2600" transform="matrix(1.00, 0.00, -0.00, -1.00, 283.0, 523.0)"> </text><text xml:space="preserve" font-family="Helvetica-Bold" font-weight="bold" font-size="45.0" fill="#FF2600" transform="matrix(1.00, 0.00, -0.00, -1.00, 295.5, 523.0)">s</text><text xml:space="preserve" font-family="Helvetica-Bold" font-weight="bold" font-size="45.0" fill="#FF2600" transform="matrix(1.00, 0.00, -0.00, -1.00, 320.6, 523.0)">t</text><text xml:space="preserve" font-family="Helvetica-Bold" font-weight="bold" font-size="45.0" fill="#FF2600" transform="matrix(1.00, 0.00, -0.00, -1.00, 335.5, 523.0)">r</text><text xml:space="preserve" font-family="Helvetica-Bold" font-weight="bold" font-size="45.0" fill="#FF2600" transform="matrix(1.00, 0.00, -0.00, -1.00, 353.1, 523.0)">u</text><text xml:space="preserve" font-family="Helvetica-Bold" font-weight="bold" font-size="45.0" fill="#FF2600" transform="matrix(1.00, 0.00, -0.00, -1.00, 380.5, 523.0)">c</text><text xml:space="preserve" font-family="Helvetica-Bold" font-weight="bold" font-size="45.0" fill="#FF2600" transform="matrix(1.00, 0.00, -0.00, -1.00, 405.6, 523.0)">t</text><text xml:space="preserve" font-family="Helvetica-Bold" font-weight="bold" font-size="45.0" fill="#FF2600" transform="matrix(1.00, 0.00, -0.00, -1.00, 420.6, 523.0)">u</text><text xml:space="preserve" font-family="Helvetica-Bold" font-weight="bold" font-size="45.0" fill="#FF2600" transform="matrix(1.00, 0.00, -0.00, -1.00, 448.0, 523.0)">r</text><text xml:space="preserve" font-family="Helvetica-Bold" font-weight="bold" font-size="45.0" fill="#FF2600" transform="matrix(1.00, 0.00, -0.00, -1.00, 465.6, 523.0)">e</text></g></svg>