<?xml version="1.0" encoding="UTF-8" standalone="no"?><svg xmlns="http://www.w3.org/2000/svg" xmlns:xlink="http://www.w3.org/1999/xlink" clip-rule="evenodd" stroke-miterlimit="4.00" viewBox="0 0 373 143"><desc>SVG generated by Keynote</desc><defs><pattern id="4CDBF9B2-B01B-47C0-8192-F77A3A9E4ADC" patternUnits="userSpaceOnUse" width="300" height="300" viewBox="0 0 300 300" patternTransform="matrix(1.000000, 0.000000, 0.000000, -1.000000, 6.518290, 137.754100)"><image xlink:href="../../161B0B54-7FD3-4E94-A586-B260162458D2/assets/90096E66F30E4D38552F9ACA9C23E8B7.jpeg" width="300.00" height="300.00"></image></pattern></defs><g transform="matrix(1.00, 0.00, -0.00, -1.00, 0.0, 143.0)"><image xlink:href="FE6C704BC84177A1DAF663B47DBC418D.png" width="368.00" height="141.00" transform="matrix(1.00, 0.00, -0.00, -1.00, 3.5, 141.8)" opacity="0.50"></image><g><clipPath id="clip-127"><path d="M 366.6 137.8 L 255.5 117.3 L 14.6 117.3 C 10.1 117.3 6.5 113.7 6.5 109.3 L 6.5 13.1 C 6.5 8.6 10.1 5.0 14.6 5.0 L 309.7 5.0 C 314.2 5.0 317.8 8.6 317.8 13.1 L 317.8 92.5 L 366.6 137.8 Z M 366.6 137.8 "></path></clipPath><g clip-path="url(#clip-127)"><path d="M 6.5 5.0 L 366.6 5.0 L 366.6 137.8 L 6.5 137.8 Z M 6.5 5.0 " fill="url(#4CDBF9B2-B01B-47C0-8192-F77A3A9E4ADC)"></path><path d="M 6.5 137.8 L 366.6 137.8 L 366.6 5.0 L 6.5 5.0 Z M 6.5 137.8 " fill="#00D026" fill-opacity="0.50"></path></g></g><g><clipPath id="clip-128"><path d="M 2.5 5.0 L 321.8 5.0 L 321.8 117.3 L 2.5 117.3 Z M 2.5 5.0 "></path></clipPath><g clip-path="url(#clip-128)"><text xml:space="preserve" font-family="Helvetica-Bold" font-weight="bold" font-size="32.0" fill="#FEFFFE" transform="matrix(1.00, 0.00, -0.00, -1.00, 52.0, 69.0)">G</text><text xml:space="preserve" font-family="Helvetica-Bold" font-weight="bold" font-size="32.0" fill="#FEFFFE" transform="matrix(1.00, 0.00, -0.00, -1.00, 76.9, 69.0)">l</text><text xml:space="preserve" font-family="Helvetica-Bold" font-weight="bold" font-size="32.0" fill="#FEFFFE" transform="matrix(1.00, 0.00, -0.00, -1.00, 85.8, 69.0)">o</text><text xml:space="preserve" font-family="Helvetica-Bold" font-weight="bold" font-size="32.0" fill="#FEFFFE" transform="matrix(1.00, 0.00, -0.00, -1.00, 105.3, 69.0)">b</text><text xml:space="preserve" font-family="Helvetica-Bold" font-weight="bold" font-size="32.0" fill="#FEFFFE" transform="matrix(1.00, 0.00, -0.00, -1.00, 124.8, 69.0)">a</text><text xml:space="preserve" font-family="Helvetica-Bold" font-weight="bold" font-size="32.0" fill="#FEFFFE" transform="matrix(1.00, 0.00, -0.00, -1.00, 142.6, 69.0)">l</text><text xml:space="preserve" font-family="Helvetica-Bold" font-weight="bold" font-size="32.0" fill="#FEFFFE" transform="matrix(1.00, 0.00, -0.00, -1.00, 151.5, 69.0)"> </text><text xml:space="preserve" font-family="Helvetica-Bold" font-weight="bold" font-size="32.0" fill="#FEFFFE" transform="matrix(1.00, 0.00, -0.00, -1.00, 160.4, 69.0)">G</text><text xml:space="preserve" font-family="Helvetica-Bold" font-weight="bold" font-size="32.0" fill="#FEFFFE" transform="matrix(1.00, 0.00, -0.00, -1.00, 185.3, 69.0)">r</text><text xml:space="preserve" font-family="Helvetica-Bold" font-weight="bold" font-size="32.0" fill="#FEFFFE" transform="matrix(1.00, 0.00, -0.00, -1.00, 197.7, 69.0)">o</text><text xml:space="preserve" font-family="Helvetica-Bold" font-weight="bold" font-size="32.0" fill="#FEFFFE" transform="matrix(1.00, 0.00, -0.00, -1.00, 217.3, 69.0)">o</text><text xml:space="preserve" font-family="Helvetica-Bold" font-weight="bold" font-size="32.0" fill="#FEFFFE" transform="matrix(1.00, 0.00, -0.00, -1.00, 236.8, 69.0)">v</text><text xml:space="preserve" font-family="Helvetica-Bold" font-weight="bold" font-size="32.0" fill="#FEFFFE" transform="matrix(1.00, 0.00, -0.00, -1.00, 254.6, 69.0)">y</text><text xml:space="preserve" font-family="Helvetica-Bold" font-weight="bold" font-size="32.0" fill="#FEFFFE" transform="matrix(1.00, 0.00, -0.00, -1.00, 272.4, 69.0)"> </text><text xml:space="preserve" font-family="Helvetica-Bold" font-weight="bold" font-size="32.0" fill="#FEFFFE" transform="matrix(1.00, 0.00, -0.00, -1.00, 110.0, 31.0)">s</text><text xml:space="preserve" font-family="Helvetica-Bold" font-weight="bold" font-size="32.0" fill="#FEFFFE" transform="matrix(1.00, 0.00, -0.00, -1.00, 127.8, 31.0)">c</text><text xml:space="preserve" font-family="Helvetica-Bold" font-weight="bold" font-size="32.0" fill="#FEFFFE" transform="matrix(1.00, 0.00, -0.00, -1.00, 145.6, 31.0)">r</text><text xml:space="preserve" font-family="Helvetica-Bold" font-weight="bold" font-size="32.0" fill="#FEFFFE" transform="matrix(1.00, 0.00, -0.00, -1.00, 158.1, 31.0)">i</text><text xml:space="preserve" font-family="Helvetica-Bold" font-weight="bold" font-size="32.0" fill="#FEFFFE" transform="matrix(1.00, 0.00, -0.00, -1.00, 167.0, 31.0)">p</text><text xml:space="preserve" font-family="Helvetica-Bold" font-weight="bold" font-size="32.0" fill="#FEFFFE" transform="matrix(1.00, 0.00, -0.00, -1.00, 186.5, 31.0)">t</text><text xml:space="preserve" font-family="Helvetica-Bold" font-weight="bold" font-size="32.0" fill="#FEFFFE" transform="matrix(1.00, 0.00, -0.00, -1.00, 197.1, 31.0)">s</text></g></g></g></svg>