<?xml version="1.0" encoding="UTF-8" standalone="no"?><svg xmlns="http://www.w3.org/2000/svg" xmlns:xlink="http://www.w3.org/1999/xlink" clip-rule="evenodd" stroke-miterlimit="4.00" viewBox="0 0 1920 1080"><desc>SVG generated by Keynote</desc><defs><pattern id="9826B398-D6E1-46F8-9C68-4F52B9683CEA" patternUnits="userSpaceOnUse" width="300" height="300" viewBox="0 0 300 300" patternTransform="matrix(1.000000, 0.000000, 0.000000, -1.000000, 797.158400, 743.739800)"><image xlink:href="../../161B0B54-7FD3-4E94-A586-B260162458D2/assets/90096E66F30E4D38552F9ACA9C23E8B7.jpeg" width="300.00" height="300.00"></image></pattern></defs><g transform="matrix(1.00, 0.00, -0.00, -1.00, 0.0, 1080.0)"><path d="M 0.0 1080.0 L 1920.0 1080.0 L 1920.0 0.0 L 0.0 0.0 Z M 0.0 1080.0 " fill="#FEFFFF"></path><text xml:space="preserve" font-family="Helvetica-Light" font-size="99.7" fill="#000000" transform="matrix(1.00, 0.00, -0.00, -1.00, 144.0, 878.0)">I</text><text xml:space="preserve" font-family="Helvetica-Light" font-size="99.7" fill="#000000" transform="matrix(1.00, 0.00, -0.00, -1.00, 171.7, 878.0)">n</text><text xml:space="preserve" font-family="Helvetica-Light" font-size="99.7" fill="#000000" transform="matrix(1.00, 0.00, -0.00, -1.00, 227.1, 878.0)">t</text><text xml:space="preserve" font-family="Helvetica-Light" font-size="99.7" fill="#000000" transform="matrix(1.00, 0.00, -0.00, -1.00, 254.8, 878.0)">e</text><text xml:space="preserve" font-family="Helvetica-Light" font-size="99.7" fill="#000000" transform="matrix(1.00, 0.00, -0.00, -1.00, 310.3, 878.0)">r</text><text xml:space="preserve" font-family="Helvetica-Light" font-size="99.7" fill="#000000" transform="matrix(1.00, 0.00, -0.00, -1.00, 341.7, 878.0)">e</text><text xml:space="preserve" font-family="Helvetica-Light" font-size="99.7" fill="#000000" transform="matrix(1.00, 0.00, -0.00, -1.00, 397.1, 878.0)">s</text><text xml:space="preserve" font-family="Helvetica-Light" font-size="99.7" fill="#000000" transform="matrix(1.00, 0.00, -0.00, -1.00, 446.9, 878.0)">t</text><text xml:space="preserve" font-family="Helvetica-Light" font-size="99.7" fill="#000000" transform="matrix(1.00, 0.00, -0.00, -1.00, 474.6, 878.0)">i</text><text xml:space="preserve" font-family="Helvetica-Light" font-size="99.7" fill="#000000" transform="matrix(1.00, 0.00, -0.00, -1.00, 496.8, 878.0)">n</text><text xml:space="preserve" font-family="Helvetica-Light" font-size="99.7" fill="#000000" transform="matrix(1.00, 0.00, -0.00, -1.00, 552.2, 878.0)">g</text><text xml:space="preserve" font-family="Helvetica-Light" font-size="99.7" fill="#000000" transform="matrix(1.00, 0.00, -0.00, -1.00, 613.1, 878.0)"> </text><text xml:space="preserve" font-family="Helvetica-Light" font-size="99.7" fill="#000000" transform="matrix(1.00, 0.00, -0.00, -1.00, 640.8, 878.0)">T</text><text xml:space="preserve" font-family="Helvetica-Light" font-size="99.7" fill="#000000" transform="matrix(1.00, 0.00, -0.00, -1.00, 696.2, 878.0)">h</text><text xml:space="preserve" font-family="Helvetica-Light" font-size="99.7" fill="#000000" transform="matrix(1.00, 0.00, -0.00, -1.00, 751.6, 878.0)">i</text><text xml:space="preserve" font-family="Helvetica-Light" font-size="99.7" fill="#000000" transform="matrix(1.00, 0.00, -0.00, -1.00, 773.8, 878.0)">n</text><text xml:space="preserve" font-family="Helvetica-Light" font-size="99.7" fill="#000000" transform="matrix(1.00, 0.00, -0.00, -1.00, 829.2, 878.0)">g</text><text xml:space="preserve" font-family="Helvetica-Light" font-size="99.7" fill="#000000" transform="matrix(1.00, 0.00, -0.00, -1.00, 890.1, 878.0)">s</text><text xml:space="preserve" font-family="Helvetica-Light" font-size="99.7" fill="#000000" transform="matrix(1.00, 0.00, -0.00, -1.00, 939.9, 878.0)"> </text><text xml:space="preserve" font-family="Helvetica-Light" font-size="99.7" fill="#000000" transform="matrix(1.00, 0.00, -0.00, -1.00, 967.7, 878.0)">t</text><text xml:space="preserve" font-family="Helvetica-Light" font-size="99.7" fill="#000000" transform="matrix(1.00, 0.00, -0.00, -1.00, 995.4, 878.0)">o</text><text xml:space="preserve" font-family="Helvetica-Light" font-size="99.7" fill="#000000" transform="matrix(1.00, 0.00, -0.00, -1.00, 1050.8, 878.0)"> </text><text xml:space="preserve" font-family="Helvetica-Light" font-size="99.7" fill="#000000" transform="matrix(1.00, 0.00, -0.00, -1.00, 1078.5, 878.0)">D</text><text xml:space="preserve" font-family="Helvetica-Light" font-size="99.7" fill="#000000" transform="matrix(1.00, 0.00, -0.00, -1.00, 1150.5, 878.0)">o</text><text xml:space="preserve" font-family="Helvetica-Light" font-size="99.7" fill="#000000" transform="matrix(1.00, 0.00, -0.00, -1.00, 1205.9, 878.0)"> </text><text xml:space="preserve" font-family="Helvetica-Light" font-size="99.7" fill="#000000" transform="matrix(1.00, 0.00, -0.00, -1.00, 1233.6, 878.0)">i</text><text xml:space="preserve" font-family="Helvetica-Light" font-size="99.7" fill="#000000" transform="matrix(1.00, 0.00, -0.00, -1.00, 1255.7, 878.0)">n</text><text xml:space="preserve" font-family="Helvetica-Light" font-size="99.7" fill="#000000" transform="matrix(1.00, 0.00, -0.00, -1.00, 1311.2, 878.0)"> </text><text xml:space="preserve" font-family="Helvetica-Light" font-size="99.7" fill="#000000" transform="matrix(1.00, 0.00, -0.00, -1.00, 1338.9, 878.0)">a</text><text xml:space="preserve" font-family="Helvetica-Light" font-size="99.7" fill="#000000" transform="matrix(1.00, 0.00, -0.00, -1.00, 1394.3, 878.0)"> </text><text xml:space="preserve" font-family="Helvetica-Light" font-size="99.7" fill="#000000" transform="matrix(1.00, 0.00, -0.00, -1.00, 1422.0, 878.0)">P</text><text xml:space="preserve" font-family="Helvetica-Light" font-size="99.7" fill="#000000" transform="matrix(1.00, 0.00, -0.00, -1.00, 1482.9, 878.0)">i</text><text xml:space="preserve" font-family="Helvetica-Light" font-size="99.7" fill="#000000" transform="matrix(1.00, 0.00, -0.00, -1.00, 1505.0, 878.0)">p</text><text xml:space="preserve" font-family="Helvetica-Light" font-size="99.7" fill="#000000" transform="matrix(1.00, 0.00, -0.00, -1.00, 1565.9, 878.0)">e</text><text xml:space="preserve" font-family="Helvetica-Light" font-size="99.7" fill="#000000" transform="matrix(1.00, 0.00, -0.00, -1.00, 1621.4, 878.0)">l</text><text xml:space="preserve" font-family="Helvetica-Light" font-size="99.7" fill="#000000" transform="matrix(1.00, 0.00, -0.00, -1.00, 1643.5, 878.0)">i</text><text xml:space="preserve" font-family="Helvetica-Light" font-size="99.7" fill="#000000" transform="matrix(1.00, 0.00, -0.00, -1.00, 1665.6, 878.0)">n</text><text xml:space="preserve" font-family="Helvetica-Light" font-size="99.7" fill="#000000" transform="matrix(1.00, 0.00, -0.00, -1.00, 1721.0, 878.0)">e</text><text xml:space="preserve" font-family="CourierNewPSMT" font-size="45.0" fill="#000000" transform="matrix(1.00, 0.00, -0.00, -1.00, 514.0, 732.0)">a</text><text xml:space="preserve" font-family="CourierNewPSMT" font-size="45.0" fill="#000000" transform="matrix(1.00, 0.00, -0.00, -1.00, 541.0, 732.0)">g</text><text xml:space="preserve" font-family="CourierNewPSMT" font-size="45.0" fill="#000000" transform="matrix(1.00, 0.00, -0.00, -1.00, 568.0, 732.0)">e</text><text xml:space="preserve" font-family="CourierNewPSMT" font-size="45.0" fill="#000000" transform="matrix(1.00, 0.00, -0.00, -1.00, 595.0, 732.0)">n</text><text xml:space="preserve" font-family="CourierNewPSMT" font-size="45.0" fill="#000000" transform="matrix(1.00, 0.00, -0.00, -1.00, 622.0, 732.0)">t</text><text xml:space="preserve" font-family="CourierNewPSMT" font-size="45.0" fill="#000000" transform="matrix(1.00, 0.00, -0.00, -1.00, 649.0, 732.0)"> </text><text xml:space="preserve" font-family="CourierNewPSMT" font-size="45.0" fill="#000000" transform="matrix(1.00, 0.00, -0.00, -1.00, 676.1, 732.0)"> </text><text xml:space="preserve" font-family="CourierNewPSMT" font-size="45.0" fill="#000000" transform="matrix(1.00, 0.00, -0.00, -1.00, 514.0, 681.0)">{</text><text xml:space="preserve" font-family="CourierNewPSMT" font-size="45.0" fill="#000000" transform="matrix(1.00, 0.00, -0.00, -1.00, 541.0, 681.0)"> </text><text xml:space="preserve" font-family="CourierNewPSMT" font-size="45.0" fill="#000000" transform="matrix(1.00, 0.00, -0.00, -1.00, 514.0, 630.0)"> </text><text xml:space="preserve" font-family="CourierNewPSMT" font-size="45.0" fill="#000000" transform="matrix(1.00, 0.00, -0.00, -1.00, 541.0, 630.0)"> </text><text xml:space="preserve" font-family="CourierNewPSMT" font-size="45.0" fill="#000000" transform="matrix(1.00, 0.00, -0.00, -1.00, 568.0, 630.0)"> </text><text xml:space="preserve" font-family="CourierNewPSMT" font-size="45.0" fill="#000000" transform="matrix(1.00, 0.00, -0.00, -1.00, 595.0, 630.0)"> </text><text xml:space="preserve" font-family="CourierNewPSMT" font-size="45.0" fill="#000000" transform="matrix(1.00, 0.00, -0.00, -1.00, 622.0, 630.0)">d</text><text xml:space="preserve" font-family="CourierNewPSMT" font-size="45.0" fill="#000000" transform="matrix(1.00, 0.00, -0.00, -1.00, 649.0, 630.0)">o</text><text xml:space="preserve" font-family="CourierNewPSMT" font-size="45.0" fill="#000000" transform="matrix(1.00, 0.00, -0.00, -1.00, 676.1, 630.0)">c</text><text xml:space="preserve" font-family="CourierNewPSMT" font-size="45.0" fill="#000000" transform="matrix(1.00, 0.00, -0.00, -1.00, 703.1, 630.0)">k</text><text xml:space="preserve" font-family="CourierNewPSMT" font-size="45.0" fill="#000000" transform="matrix(1.00, 0.00, -0.00, -1.00, 730.1, 630.0)">e</text><text xml:space="preserve" font-family="CourierNewPSMT" font-size="45.0" fill="#000000" transform="matrix(1.00, 0.00, -0.00, -1.00, 757.1, 630.0)">r</text><text xml:space="preserve" font-family="CourierNewPSMT" font-size="45.0" fill="#000000" transform="matrix(1.00, 0.00, -0.00, -1.00, 784.1, 630.0)"> </text><text xml:space="preserve" font-family="CourierNewPSMT" font-size="45.0" fill="#000000" transform="matrix(1.00, 0.00, -0.00, -1.00, 811.1, 630.0)"> </text><text xml:space="preserve" font-family="CourierNewPSMT" font-size="45.0" fill="#000000" transform="matrix(1.00, 0.00, -0.00, -1.00, 514.0, 579.0)"> </text><text xml:space="preserve" font-family="CourierNewPSMT" font-size="45.0" fill="#000000" transform="matrix(1.00, 0.00, -0.00, -1.00, 541.0, 579.0)"> </text><text xml:space="preserve" font-family="CourierNewPSMT" font-size="45.0" fill="#000000" transform="matrix(1.00, 0.00, -0.00, -1.00, 568.0, 579.0)"> </text><text xml:space="preserve" font-family="CourierNewPSMT" font-size="45.0" fill="#000000" transform="matrix(1.00, 0.00, -0.00, -1.00, 595.0, 579.0)"> </text><text xml:space="preserve" font-family="CourierNewPSMT" font-size="45.0" fill="#000000" transform="matrix(1.00, 0.00, -0.00, -1.00, 622.0, 579.0)">{</text><text xml:space="preserve" font-family="CourierNewPSMT" font-size="45.0" fill="#000000" transform="matrix(1.00, 0.00, -0.00, -1.00, 649.0, 579.0)"> </text><text xml:space="preserve" font-family="CourierNewPSMT" font-size="45.0" fill="#000000" transform="matrix(1.00, 0.00, -0.00, -1.00, 514.0, 528.0)"> </text><text xml:space="preserve" font-family="CourierNewPSMT" font-size="45.0" fill="#000000" transform="matrix(1.00, 0.00, -0.00, -1.00, 541.0, 528.0)"> </text><text xml:space="preserve" font-family="CourierNewPSMT" font-size="45.0" fill="#000000" transform="matrix(1.00, 0.00, -0.00, -1.00, 568.0, 528.0)"> </text><text xml:space="preserve" font-family="CourierNewPSMT" font-size="45.0" fill="#000000" transform="matrix(1.00, 0.00, -0.00, -1.00, 595.0, 528.0)"> </text><text xml:space="preserve" font-family="CourierNewPSMT" font-size="45.0" fill="#000000" transform="matrix(1.00, 0.00, -0.00, -1.00, 622.0, 528.0)"> </text><text xml:space="preserve" font-family="CourierNewPSMT" font-size="45.0" fill="#000000" transform="matrix(1.00, 0.00, -0.00, -1.00, 649.0, 528.0)"> </text><text xml:space="preserve" font-family="CourierNewPSMT" font-size="45.0" fill="#000000" transform="matrix(1.00, 0.00, -0.00, -1.00, 676.1, 528.0)"> </text><text xml:space="preserve" font-family="CourierNewPSMT" font-size="45.0" fill="#000000" transform="matrix(1.00, 0.00, -0.00, -1.00, 703.1, 528.0)"> </text><text xml:space="preserve" font-family="CourierNewPSMT" font-size="45.0" fill="#000000" transform="matrix(1.00, 0.00, -0.00, -1.00, 730.1, 528.0)">i</text><text xml:space="preserve" font-family="CourierNewPSMT" font-size="45.0" fill="#000000" transform="matrix(1.00, 0.00, -0.00, -1.00, 757.1, 528.0)">m</text><text xml:space="preserve" font-family="CourierNewPSMT" font-size="45.0" fill="#000000" transform="matrix(1.00, 0.00, -0.00, -1.00, 784.1, 528.0)">a</text><text xml:space="preserve" font-family="CourierNewPSMT" font-size="45.0" fill="#000000" transform="matrix(1.00, 0.00, -0.00, -1.00, 811.1, 528.0)">g</text><text xml:space="preserve" font-family="CourierNewPSMT" font-size="45.0" fill="#000000" transform="matrix(1.00, 0.00, -0.00, -1.00, 838.1, 528.0)">e</text><text xml:space="preserve" font-family="CourierNewPSMT" font-size="45.0" fill="#000000" transform="matrix(1.00, 0.00, -0.00, -1.00, 865.1, 528.0)"> </text><text xml:space="preserve" font-family="CourierNewPSMT" font-size="45.0" fill="#000000" transform="matrix(1.00, 0.00, -0.00, -1.00, 892.1, 528.0)">'</text><text xml:space="preserve" font-family="CourierNewPSMT" font-size="45.0" fill="#000000" transform="matrix(1.00, 0.00, -0.00, -1.00, 919.1, 528.0)">m</text><text xml:space="preserve" font-family="CourierNewPSMT" font-size="45.0" fill="#000000" transform="matrix(1.00, 0.00, -0.00, -1.00, 946.1, 528.0)">a</text><text xml:space="preserve" font-family="CourierNewPSMT" font-size="45.0" fill="#000000" transform="matrix(1.00, 0.00, -0.00, -1.00, 973.2, 528.0)">v</text><text xml:space="preserve" font-family="CourierNewPSMT" font-size="45.0" fill="#000000" transform="matrix(1.00, 0.00, -0.00, -1.00, 1000.2, 528.0)">e</text><text xml:space="preserve" font-family="CourierNewPSMT" font-size="45.0" fill="#000000" transform="matrix(1.00, 0.00, -0.00, -1.00, 1027.2, 528.0)">n</text><text xml:space="preserve" font-family="CourierNewPSMT" font-size="45.0" fill="#000000" transform="matrix(1.00, 0.00, -0.00, -1.00, 1054.2, 528.0)">:</text><text xml:space="preserve" font-family="CourierNewPSMT" font-size="45.0" fill="#000000" transform="matrix(1.00, 0.00, -0.00, -1.00, 1081.2, 528.0)">3</text><text xml:space="preserve" font-family="CourierNewPSMT" font-size="45.0" fill="#000000" transform="matrix(1.00, 0.00, -0.00, -1.00, 1108.2, 528.0)">-</text><text xml:space="preserve" font-family="CourierNewPSMT" font-size="45.0" fill="#000000" transform="matrix(1.00, 0.00, -0.00, -1.00, 1135.2, 528.0)">a</text><text xml:space="preserve" font-family="CourierNewPSMT" font-size="45.0" fill="#000000" transform="matrix(1.00, 0.00, -0.00, -1.00, 1162.2, 528.0)">l</text><text xml:space="preserve" font-family="CourierNewPSMT" font-size="45.0" fill="#000000" transform="matrix(1.00, 0.00, -0.00, -1.00, 1189.2, 528.0)">p</text><text xml:space="preserve" font-family="CourierNewPSMT" font-size="45.0" fill="#000000" transform="matrix(1.00, 0.00, -0.00, -1.00, 1216.2, 528.0)">i</text><text xml:space="preserve" font-family="CourierNewPSMT" font-size="45.0" fill="#000000" transform="matrix(1.00, 0.00, -0.00, -1.00, 1243.2, 528.0)">n</text><text xml:space="preserve" font-family="CourierNewPSMT" font-size="45.0" fill="#000000" transform="matrix(1.00, 0.00, -0.00, -1.00, 1270.2, 528.0)">e</text><text xml:space="preserve" font-family="CourierNewPSMT" font-size="45.0" fill="#000000" transform="matrix(1.00, 0.00, -0.00, -1.00, 1297.3, 528.0)">'</text><text xml:space="preserve" font-family="CourierNewPSMT" font-size="45.0" fill="#000000" transform="matrix(1.00, 0.00, -0.00, -1.00, 1324.3, 528.0)"> </text><text xml:space="preserve" font-family="CourierNewPSMT" font-size="45.0" fill="#000000" transform="matrix(1.00, 0.00, -0.00, -1.00, 514.0, 477.0)"> </text><text xml:space="preserve" font-family="CourierNewPSMT" font-size="45.0" fill="#000000" transform="matrix(1.00, 0.00, -0.00, -1.00, 541.0, 477.0)"> </text><text xml:space="preserve" font-family="CourierNewPSMT" font-size="45.0" fill="#000000" transform="matrix(1.00, 0.00, -0.00, -1.00, 568.0, 477.0)"> </text><text xml:space="preserve" font-family="CourierNewPSMT" font-size="45.0" fill="#000000" transform="matrix(1.00, 0.00, -0.00, -1.00, 595.0, 477.0)"> </text><text xml:space="preserve" font-family="CourierNewPSMT" font-size="45.0" fill="#000000" transform="matrix(1.00, 0.00, -0.00, -1.00, 622.0, 477.0)"> </text><text xml:space="preserve" font-family="CourierNewPSMT" font-size="45.0" fill="#000000" transform="matrix(1.00, 0.00, -0.00, -1.00, 649.0, 477.0)"> </text><text xml:space="preserve" font-family="CourierNewPSMT" font-size="45.0" fill="#000000" transform="matrix(1.00, 0.00, -0.00, -1.00, 676.1, 477.0)"> </text><text xml:space="preserve" font-family="CourierNewPSMT" font-size="45.0" fill="#000000" transform="matrix(1.00, 0.00, -0.00, -1.00, 703.1, 477.0)"> </text><text xml:space="preserve" font-family="CourierNewPSMT" font-size="45.0" fill="#000000" transform="matrix(1.00, 0.00, -0.00, -1.00, 730.1, 477.0)">l</text><text xml:space="preserve" font-family="CourierNewPSMT" font-size="45.0" fill="#000000" transform="matrix(1.00, 0.00, -0.00, -1.00, 757.1, 477.0)">a</text><text xml:space="preserve" font-family="CourierNewPSMT" font-size="45.0" fill="#000000" transform="matrix(1.00, 0.00, -0.00, -1.00, 784.1, 477.0)">b</text><text xml:space="preserve" font-family="CourierNewPSMT" font-size="45.0" fill="#000000" transform="matrix(1.00, 0.00, -0.00, -1.00, 811.1, 477.0)">e</text><text xml:space="preserve" font-family="CourierNewPSMT" font-size="45.0" fill="#000000" transform="matrix(1.00, 0.00, -0.00, -1.00, 838.1, 477.0)">l</text><text xml:space="preserve" font-family="CourierNewPSMT" font-size="45.0" fill="#000000" transform="matrix(1.00, 0.00, -0.00, -1.00, 865.1, 477.0)"> </text><text xml:space="preserve" font-family="CourierNewPSMT" font-size="45.0" fill="#000000" transform="matrix(1.00, 0.00, -0.00, -1.00, 892.1, 477.0)">'</text><text xml:space="preserve" font-family="CourierNewPSMT" font-size="45.0" fill="#000000" transform="matrix(1.00, 0.00, -0.00, -1.00, 919.1, 477.0)">m</text><text xml:space="preserve" font-family="CourierNewPSMT" font-size="45.0" fill="#000000" transform="matrix(1.00, 0.00, -0.00, -1.00, 946.1, 477.0)">y</text><text xml:space="preserve" font-family="CourierNewPSMT" font-size="45.0" fill="#000000" transform="matrix(1.00, 0.00, -0.00, -1.00, 973.2, 477.0)">-</text><text xml:space="preserve" font-family="CourierNewPSMT" font-size="45.0" fill="#000000" transform="matrix(1.00, 0.00, -0.00, -1.00, 1000.2, 477.0)">d</text><text xml:space="preserve" font-family="CourierNewPSMT" font-size="45.0" fill="#000000" transform="matrix(1.00, 0.00, -0.00, -1.00, 1027.2, 477.0)">e</text><text xml:space="preserve" font-family="CourierNewPSMT" font-size="45.0" fill="#000000" transform="matrix(1.00, 0.00, -0.00, -1.00, 1054.2, 477.0)">f</text><text xml:space="preserve" font-family="CourierNewPSMT" font-size="45.0" fill="#000000" transform="matrix(1.00, 0.00, -0.00, -1.00, 1081.2, 477.0)">i</text><text xml:space="preserve" font-family="CourierNewPSMT" font-size="45.0" fill="#000000" transform="matrix(1.00, 0.00, -0.00, -1.00, 1108.2, 477.0)">n</text><text xml:space="preserve" font-family="CourierNewPSMT" font-size="45.0" fill="#000000" transform="matrix(1.00, 0.00, -0.00, -1.00, 1135.2, 477.0)">e</text><text xml:space="preserve" font-family="CourierNewPSMT" font-size="45.0" fill="#000000" transform="matrix(1.00, 0.00, -0.00, -1.00, 1162.2, 477.0)">d</text><text xml:space="preserve" font-family="CourierNewPSMT" font-size="45.0" fill="#000000" transform="matrix(1.00, 0.00, -0.00, -1.00, 1189.2, 477.0)">-</text><text xml:space="preserve" font-family="CourierNewPSMT" font-size="45.0" fill="#000000" transform="matrix(1.00, 0.00, -0.00, -1.00, 1216.2, 477.0)">l</text><text xml:space="preserve" font-family="CourierNewPSMT" font-size="45.0" fill="#000000" transform="matrix(1.00, 0.00, -0.00, -1.00, 1243.2, 477.0)">a</text><text xml:space="preserve" font-family="CourierNewPSMT" font-size="45.0" fill="#000000" transform="matrix(1.00, 0.00, -0.00, -1.00, 1270.2, 477.0)">b</text><text xml:space="preserve" font-family="CourierNewPSMT" font-size="45.0" fill="#000000" transform="matrix(1.00, 0.00, -0.00, -1.00, 1297.3, 477.0)">e</text><text xml:space="preserve" font-family="CourierNewPSMT" font-size="45.0" fill="#000000" transform="matrix(1.00, 0.00, -0.00, -1.00, 1324.3, 477.0)">l</text><text xml:space="preserve" font-family="CourierNewPSMT" font-size="45.0" fill="#000000" transform="matrix(1.00, 0.00, -0.00, -1.00, 1351.3, 477.0)">'</text><text xml:space="preserve" font-family="CourierNewPSMT" font-size="45.0" fill="#000000" transform="matrix(1.00, 0.00, -0.00, -1.00, 1378.3, 477.0)"> </text><text xml:space="preserve" font-family="CourierNewPSMT" font-size="45.0" fill="#000000" transform="matrix(1.00, 0.00, -0.00, -1.00, 514.0, 426.0)"> </text><text xml:space="preserve" font-family="CourierNewPSMT" font-size="45.0" fill="#000000" transform="matrix(1.00, 0.00, -0.00, -1.00, 541.0, 426.0)"> </text><text xml:space="preserve" font-family="CourierNewPSMT" font-size="45.0" fill="#000000" transform="matrix(1.00, 0.00, -0.00, -1.00, 568.0, 426.0)"> </text><text xml:space="preserve" font-family="CourierNewPSMT" font-size="45.0" fill="#000000" transform="matrix(1.00, 0.00, -0.00, -1.00, 595.0, 426.0)"> </text><text xml:space="preserve" font-family="CourierNewPSMT" font-size="45.0" fill="#000000" transform="matrix(1.00, 0.00, -0.00, -1.00, 622.0, 426.0)"> </text><text xml:space="preserve" font-family="CourierNewPSMT" font-size="45.0" fill="#000000" transform="matrix(1.00, 0.00, -0.00, -1.00, 649.0, 426.0)"> </text><text xml:space="preserve" font-family="CourierNewPSMT" font-size="45.0" fill="#000000" transform="matrix(1.00, 0.00, -0.00, -1.00, 676.1, 426.0)"> </text><text xml:space="preserve" font-family="CourierNewPSMT" font-size="45.0" fill="#000000" transform="matrix(1.00, 0.00, -0.00, -1.00, 703.1, 426.0)"> </text><text xml:space="preserve" font-family="CourierNewPSMT" font-size="45.0" fill="#000000" transform="matrix(1.00, 0.00, -0.00, -1.00, 730.1, 426.0)">a</text><text xml:space="preserve" font-family="CourierNewPSMT" font-size="45.0" fill="#000000" transform="matrix(1.00, 0.00, -0.00, -1.00, 757.1, 426.0)">r</text><text xml:space="preserve" font-family="CourierNewPSMT" font-size="45.0" fill="#000000" transform="matrix(1.00, 0.00, -0.00, -1.00, 784.1, 426.0)">g</text><text xml:space="preserve" font-family="CourierNewPSMT" font-size="45.0" fill="#000000" transform="matrix(1.00, 0.00, -0.00, -1.00, 811.1, 426.0)">s</text><text xml:space="preserve" font-family="CourierNewPSMT" font-size="45.0" fill="#000000" transform="matrix(1.00, 0.00, -0.00, -1.00, 838.1, 426.0)"> </text><text xml:space="preserve" font-family="CourierNewPSMT" font-size="45.0" fill="#000000" transform="matrix(1.00, 0.00, -0.00, -1.00, 865.1, 426.0)"> </text><text xml:space="preserve" font-family="CourierNewPSMT" font-size="45.0" fill="#000000" transform="matrix(1.00, 0.00, -0.00, -1.00, 892.1, 426.0)">'</text><text xml:space="preserve" font-family="CourierNewPSMT" font-size="45.0" fill="#000000" transform="matrix(1.00, 0.00, -0.00, -1.00, 919.1, 426.0)">-</text><text xml:space="preserve" font-family="CourierNewPSMT" font-size="45.0" fill="#000000" transform="matrix(1.00, 0.00, -0.00, -1.00, 946.1, 426.0)">v</text><text xml:space="preserve" font-family="CourierNewPSMT" font-size="45.0" fill="#000000" transform="matrix(1.00, 0.00, -0.00, -1.00, 973.2, 426.0)"> </text><text xml:space="preserve" font-family="CourierNewPSMT" font-size="45.0" fill="#000000" transform="matrix(1.00, 0.00, -0.00, -1.00, 1000.2, 426.0)">/</text><text xml:space="preserve" font-family="CourierNewPSMT" font-size="45.0" fill="#000000" transform="matrix(1.00, 0.00, -0.00, -1.00, 1027.2, 426.0)">t</text><text xml:space="preserve" font-family="CourierNewPSMT" font-size="45.0" fill="#000000" transform="matrix(1.00, 0.00, -0.00, -1.00, 1054.2, 426.0)">m</text><text xml:space="preserve" font-family="CourierNewPSMT" font-size="45.0" fill="#000000" transform="matrix(1.00, 0.00, -0.00, -1.00, 1081.2, 426.0)">p</text><text xml:space="preserve" font-family="CourierNewPSMT" font-size="45.0" fill="#000000" transform="matrix(1.00, 0.00, -0.00, -1.00, 1108.2, 426.0)">:</text><text xml:space="preserve" font-family="CourierNewPSMT" font-size="45.0" fill="#000000" transform="matrix(1.00, 0.00, -0.00, -1.00, 1135.2, 426.0)">/</text><text xml:space="preserve" font-family="CourierNewPSMT" font-size="45.0" fill="#000000" transform="matrix(1.00, 0.00, -0.00, -1.00, 1162.2, 426.0)">t</text><text xml:space="preserve" font-family="CourierNewPSMT" font-size="45.0" fill="#000000" transform="matrix(1.00, 0.00, -0.00, -1.00, 1189.2, 426.0)">m</text><text xml:space="preserve" font-family="CourierNewPSMT" font-size="45.0" fill="#000000" transform="matrix(1.00, 0.00, -0.00, -1.00, 1216.2, 426.0)">p</text><text xml:space="preserve" font-family="CourierNewPSMT" font-size="45.0" fill="#000000" transform="matrix(1.00, 0.00, -0.00, -1.00, 1243.2, 426.0)">'</text><text xml:space="preserve" font-family="CourierNewPSMT" font-size="45.0" fill="#000000" transform="matrix(1.00, 0.00, -0.00, -1.00, 1270.2, 426.0)"> </text><text xml:space="preserve" font-family="CourierNewPSMT" font-size="45.0" fill="#000000" transform="matrix(1.00, 0.00, -0.00, -1.00, 514.0, 375.0)"> </text><text xml:space="preserve" font-family="CourierNewPSMT" font-size="45.0" fill="#000000" transform="matrix(1.00, 0.00, -0.00, -1.00, 541.0, 375.0)"> </text><text xml:space="preserve" font-family="CourierNewPSMT" font-size="45.0" fill="#000000" transform="matrix(1.00, 0.00, -0.00, -1.00, 568.0, 375.0)"> </text><text xml:space="preserve" font-family="CourierNewPSMT" font-size="45.0" fill="#000000" transform="matrix(1.00, 0.00, -0.00, -1.00, 595.0, 375.0)"> </text><text xml:space="preserve" font-family="CourierNewPSMT" font-size="45.0" fill="#000000" transform="matrix(1.00, 0.00, -0.00, -1.00, 622.0, 375.0)">}</text><text xml:space="preserve" font-family="CourierNewPSMT" font-size="45.0" fill="#000000" transform="matrix(1.00, 0.00, -0.00, -1.00, 649.0, 375.0)"> </text><text xml:space="preserve" font-family="CourierNewPSMT" font-size="45.0" fill="#000000" transform="matrix(1.00, 0.00, -0.00, -1.00, 514.0, 324.0)">}</text><image xlink:href="../../ED760F03-9CF1-4DD4-A85A-6893EF3F7DA7/assets/95E7171DA59D123ECE309D0312DAA9AF.png" width="705.00" height="170.00" transform="matrix(1.00, 0.00, -0.00, -1.00, 794.2, 747.7)" opacity="0.50"></image><g><clipPath id="clip-111"><path d="M 1016.6 743.7 C 1012.1 743.7 1008.5 740.1 1008.5 735.7 L 1008.5 657.0 L 797.2 640.8 L 1008.5 624.6 L 1008.5 590.3 C 1008.5 585.9 1012.1 582.2 1016.6 582.2 L 1486.5 582.2 C 1491.0 582.2 1494.6 585.9 1494.6 590.3 L 1494.6 735.7 C 1494.6 740.1 1491.0 743.7 1486.5 743.7 L 1016.6 743.7 Z M 1016.6 743.7 "></path></clipPath><g clip-path="url(#clip-111)"><path d="M 797.2 582.2 L 1494.6 582.2 L 1494.6 743.7 L 797.2 743.7 Z M 797.2 582.2 " fill="url(#9826B398-D6E1-46F8-9C68-4F52B9683CEA)"></path><path d="M 797.2 743.7 L 1494.6 743.7 L 1494.6 582.2 L 797.2 582.2 Z M 797.2 743.7 " fill="#00D026" fill-opacity="0.50"></path></g></g><g><clipPath id="clip-112"><path d="M 1004.5 579.7 L 1498.6 579.7 L 1498.6 747.7 L 1004.5 747.7 Z M 1004.5 579.7 "></path></clipPath><g clip-path="url(#clip-112)"><text xml:space="preserve" font-family="Helvetica-Bold" font-weight="bold" font-size="32.0" fill="#FEFFFE" transform="matrix(1.00, 0.00, -0.00, -1.00, 1026.0, 709.0)">D</text><text xml:space="preserve" font-family="Helvetica-Bold" font-weight="bold" font-size="32.0" fill="#FEFFFE" transform="matrix(1.00, 0.00, -0.00, -1.00, 1049.1, 709.0)">y</text><text xml:space="preserve" font-family="Helvetica-Bold" font-weight="bold" font-size="32.0" fill="#FEFFFE" transform="matrix(1.00, 0.00, -0.00, -1.00, 1066.9, 709.0)">n</text><text xml:space="preserve" font-family="Helvetica-Bold" font-weight="bold" font-size="32.0" fill="#FEFFFE" transform="matrix(1.00, 0.00, -0.00, -1.00, 1086.5, 709.0)">a</text><text xml:space="preserve" font-family="Helvetica-Bold" font-weight="bold" font-size="32.0" fill="#FEFFFE" transform="matrix(1.00, 0.00, -0.00, -1.00, 1104.3, 709.0)">m</text><text xml:space="preserve" font-family="Helvetica-Bold" font-weight="bold" font-size="32.0" fill="#FEFFFE" transform="matrix(1.00, 0.00, -0.00, -1.00, 1132.7, 709.0)">i</text><text xml:space="preserve" font-family="Helvetica-Bold" font-weight="bold" font-size="32.0" fill="#FEFFFE" transform="matrix(1.00, 0.00, -0.00, -1.00, 1141.6, 709.0)">c</text><text xml:space="preserve" font-family="Helvetica-Bold" font-weight="bold" font-size="32.0" fill="#FEFFFE" transform="matrix(1.00, 0.00, -0.00, -1.00, 1159.4, 709.0)">a</text><text xml:space="preserve" font-family="Helvetica-Bold" font-weight="bold" font-size="32.0" fill="#FEFFFE" transform="matrix(1.00, 0.00, -0.00, -1.00, 1177.2, 709.0)">l</text><text xml:space="preserve" font-family="Helvetica-Bold" font-weight="bold" font-size="32.0" fill="#FEFFFE" transform="matrix(1.00, 0.00, -0.00, -1.00, 1186.1, 709.0)">l</text><text xml:space="preserve" font-family="Helvetica-Bold" font-weight="bold" font-size="32.0" fill="#FEFFFE" transform="matrix(1.00, 0.00, -0.00, -1.00, 1195.0, 709.0)">y</text><text xml:space="preserve" font-family="Helvetica-Bold" font-weight="bold" font-size="32.0" fill="#FEFFFE" transform="matrix(1.00, 0.00, -0.00, -1.00, 1212.8, 709.0)"> </text><text xml:space="preserve" font-family="Helvetica-Bold" font-weight="bold" font-size="32.0" fill="#FEFFFE" transform="matrix(1.00, 0.00, -0.00, -1.00, 1221.7, 709.0)">p</text><text xml:space="preserve" font-family="Helvetica-Bold" font-weight="bold" font-size="32.0" fill="#FEFFFE" transform="matrix(1.00, 0.00, -0.00, -1.00, 1241.3, 709.0)">r</text><text xml:space="preserve" font-family="Helvetica-Bold" font-weight="bold" font-size="32.0" fill="#FEFFFE" transform="matrix(1.00, 0.00, -0.00, -1.00, 1253.7, 709.0)">o</text><text xml:space="preserve" font-family="Helvetica-Bold" font-weight="bold" font-size="32.0" fill="#FEFFFE" transform="matrix(1.00, 0.00, -0.00, -1.00, 1273.3, 709.0)">v</text><text xml:space="preserve" font-family="Helvetica-Bold" font-weight="bold" font-size="32.0" fill="#FEFFFE" transform="matrix(1.00, 0.00, -0.00, -1.00, 1291.1, 709.0)">i</text><text xml:space="preserve" font-family="Helvetica-Bold" font-weight="bold" font-size="32.0" fill="#FEFFFE" transform="matrix(1.00, 0.00, -0.00, -1.00, 1300.0, 709.0)">s</text><text xml:space="preserve" font-family="Helvetica-Bold" font-weight="bold" font-size="32.0" fill="#FEFFFE" transform="matrix(1.00, 0.00, -0.00, -1.00, 1317.8, 709.0)">i</text><text xml:space="preserve" font-family="Helvetica-Bold" font-weight="bold" font-size="32.0" fill="#FEFFFE" transform="matrix(1.00, 0.00, -0.00, -1.00, 1326.7, 709.0)">o</text><text xml:space="preserve" font-family="Helvetica-Bold" font-weight="bold" font-size="32.0" fill="#FEFFFE" transform="matrix(1.00, 0.00, -0.00, -1.00, 1346.3, 709.0)">n</text><text xml:space="preserve" font-family="Helvetica-Bold" font-weight="bold" font-size="32.0" fill="#FEFFFE" transform="matrix(1.00, 0.00, -0.00, -1.00, 1365.8, 709.0)"> </text><text xml:space="preserve" font-family="Helvetica-Bold" font-weight="bold" font-size="32.0" fill="#FEFFFE" transform="matrix(1.00, 0.00, -0.00, -1.00, 1374.7, 709.0)">a</text><text xml:space="preserve" font-family="Helvetica-Bold" font-weight="bold" font-size="32.0" fill="#FEFFFE" transform="matrix(1.00, 0.00, -0.00, -1.00, 1392.5, 709.0)"> </text><text xml:space="preserve" font-family="Helvetica-Bold" font-weight="bold" font-size="32.0" fill="#FEFFFE" transform="matrix(1.00, 0.00, -0.00, -1.00, 1401.4, 709.0)">n</text><text xml:space="preserve" font-family="Helvetica-Bold" font-weight="bold" font-size="32.0" fill="#FEFFFE" transform="matrix(1.00, 0.00, -0.00, -1.00, 1421.0, 709.0)">o</text><text xml:space="preserve" font-family="Helvetica-Bold" font-weight="bold" font-size="32.0" fill="#FEFFFE" transform="matrix(1.00, 0.00, -0.00, -1.00, 1440.5, 709.0)">d</text><text xml:space="preserve" font-family="Helvetica-Bold" font-weight="bold" font-size="32.0" fill="#FEFFFE" transform="matrix(1.00, 0.00, -0.00, -1.00, 1460.1, 709.0)">e</text><text xml:space="preserve" font-family="Helvetica-Bold" font-weight="bold" font-size="32.0" fill="#FEFFFE" transform="matrix(1.00, 0.00, -0.00, -1.00, 1477.9, 709.0)"> </text><text xml:space="preserve" font-family="Helvetica-Bold" font-weight="bold" font-size="32.0" fill="#FEFFFE" transform="matrix(1.00, 0.00, -0.00, -1.00, 1038.0, 671.0)">t</text><text xml:space="preserve" font-family="Helvetica-Bold" font-weight="bold" font-size="32.0" fill="#FEFFFE" transform="matrix(1.00, 0.00, -0.00, -1.00, 1048.7, 671.0)">o</text><text xml:space="preserve" font-family="Helvetica-Bold" font-weight="bold" font-size="32.0" fill="#FEFFFE" transform="matrix(1.00, 0.00, -0.00, -1.00, 1068.2, 671.0)"> </text><text xml:space="preserve" font-family="Helvetica-Bold" font-weight="bold" font-size="32.0" fill="#FEFFFE" transform="matrix(1.00, 0.00, -0.00, -1.00, 1077.1, 671.0)">r</text><text xml:space="preserve" font-family="Helvetica-Bold" font-weight="bold" font-size="32.0" fill="#FEFFFE" transform="matrix(1.00, 0.00, -0.00, -1.00, 1089.5, 671.0)">u</text><text xml:space="preserve" font-family="Helvetica-Bold" font-weight="bold" font-size="32.0" fill="#FEFFFE" transform="matrix(1.00, 0.00, -0.00, -1.00, 1109.1, 671.0)">n</text><text xml:space="preserve" font-family="Helvetica-Bold" font-weight="bold" font-size="32.0" fill="#FEFFFE" transform="matrix(1.00, 0.00, -0.00, -1.00, 1128.6, 671.0)"> </text><text xml:space="preserve" font-family="Helvetica-Bold" font-weight="bold" font-size="32.0" fill="#FEFFFE" transform="matrix(1.00, 0.00, -0.00, -1.00, 1137.5, 671.0)">t</text><text xml:space="preserve" font-family="Helvetica-Bold" font-weight="bold" font-size="32.0" fill="#FEFFFE" transform="matrix(1.00, 0.00, -0.00, -1.00, 1148.2, 671.0)">h</text><text xml:space="preserve" font-family="Helvetica-Bold" font-weight="bold" font-size="32.0" fill="#FEFFFE" transform="matrix(1.00, 0.00, -0.00, -1.00, 1167.7, 671.0)">e</text><text xml:space="preserve" font-family="Helvetica-Bold" font-weight="bold" font-size="32.0" fill="#FEFFFE" transform="matrix(1.00, 0.00, -0.00, -1.00, 1185.5, 671.0)"> </text><text xml:space="preserve" font-family="Helvetica-Bold" font-weight="bold" font-size="32.0" fill="#FEFFFE" transform="matrix(1.00, 0.00, -0.00, -1.00, 1194.4, 671.0)">p</text><text xml:space="preserve" font-family="Helvetica-Bold" font-weight="bold" font-size="32.0" fill="#FEFFFE" transform="matrix(1.00, 0.00, -0.00, -1.00, 1213.9, 671.0)">i</text><text xml:space="preserve" font-family="Helvetica-Bold" font-weight="bold" font-size="32.0" fill="#FEFFFE" transform="matrix(1.00, 0.00, -0.00, -1.00, 1222.8, 671.0)">p</text><text xml:space="preserve" font-family="Helvetica-Bold" font-weight="bold" font-size="32.0" fill="#FEFFFE" transform="matrix(1.00, 0.00, -0.00, -1.00, 1242.4, 671.0)">e</text><text xml:space="preserve" font-family="Helvetica-Bold" font-weight="bold" font-size="32.0" fill="#FEFFFE" transform="matrix(1.00, 0.00, -0.00, -1.00, 1260.2, 671.0)">l</text><text xml:space="preserve" font-family="Helvetica-Bold" font-weight="bold" font-size="32.0" fill="#FEFFFE" transform="matrix(1.00, 0.00, -0.00, -1.00, 1269.0, 671.0)">i</text><text xml:space="preserve" font-family="Helvetica-Bold" font-weight="bold" font-size="32.0" fill="#FEFFFE" transform="matrix(1.00, 0.00, -0.00, -1.00, 1277.9, 671.0)">n</text><text xml:space="preserve" font-family="Helvetica-Bold" font-weight="bold" font-size="32.0" fill="#FEFFFE" transform="matrix(1.00, 0.00, -0.00, -1.00, 1297.5, 671.0)">e</text><text xml:space="preserve" font-family="Helvetica-Bold" font-weight="bold" font-size="32.0" fill="#FEFFFE" transform="matrix(1.00, 0.00, -0.00, -1.00, 1315.3, 671.0)"> </text><text xml:space="preserve" font-family="Helvetica-Bold" font-weight="bold" font-size="32.0" fill="#FEFFFE" transform="matrix(1.00, 0.00, -0.00, -1.00, 1324.2, 671.0)">b</text><text xml:space="preserve" font-family="Helvetica-Bold" font-weight="bold" font-size="32.0" fill="#FEFFFE" transform="matrix(1.00, 0.00, -0.00, -1.00, 1343.7, 671.0)">a</text><text xml:space="preserve" font-family="Helvetica-Bold" font-weight="bold" font-size="32.0" fill="#FEFFFE" transform="matrix(1.00, 0.00, -0.00, -1.00, 1361.5, 671.0)">s</text><text xml:space="preserve" font-family="Helvetica-Bold" font-weight="bold" font-size="32.0" fill="#FEFFFE" transform="matrix(1.00, 0.00, -0.00, -1.00, 1379.3, 671.0)">e</text><text xml:space="preserve" font-family="Helvetica-Bold" font-weight="bold" font-size="32.0" fill="#FEFFFE" transform="matrix(1.00, 0.00, -0.00, -1.00, 1397.1, 671.0)">d</text><text xml:space="preserve" font-family="Helvetica-Bold" font-weight="bold" font-size="32.0" fill="#FEFFFE" transform="matrix(1.00, 0.00, -0.00, -1.00, 1416.6, 671.0)"> </text><text xml:space="preserve" font-family="Helvetica-Bold" font-weight="bold" font-size="32.0" fill="#FEFFFE" transform="matrix(1.00, 0.00, -0.00, -1.00, 1425.5, 671.0)">o</text><text xml:space="preserve" font-family="Helvetica-Bold" font-weight="bold" font-size="32.0" fill="#FEFFFE" transform="matrix(1.00, 0.00, -0.00, -1.00, 1445.1, 671.0)">n</text><text xml:space="preserve" font-family="Helvetica-Bold" font-weight="bold" font-size="32.0" fill="#FEFFFE" transform="matrix(1.00, 0.00, -0.00, -1.00, 1464.6, 671.0)"> </text><text xml:space="preserve" font-family="Helvetica-Bold" font-weight="bold" font-size="32.0" fill="#FEFFFE" transform="matrix(1.00, 0.00, -0.00, -1.00, 1097.0, 633.0)">t</text><text xml:space="preserve" font-family="Helvetica-Bold" font-weight="bold" font-size="32.0" fill="#FEFFFE" transform="matrix(1.00, 0.00, -0.00, -1.00, 1107.7, 633.0)">h</text><text xml:space="preserve" font-family="Helvetica-Bold" font-weight="bold" font-size="32.0" fill="#FEFFFE" transform="matrix(1.00, 0.00, -0.00, -1.00, 1127.2, 633.0)">e</text><text xml:space="preserve" font-family="Helvetica-Bold" font-weight="bold" font-size="32.0" fill="#FEFFFE" transform="matrix(1.00, 0.00, -0.00, -1.00, 1145.0, 633.0)"> </text><text xml:space="preserve" font-family="Helvetica-Bold" font-weight="bold" font-size="32.0" fill="#FEFFFE" transform="matrix(1.00, 0.00, -0.00, -1.00, 1153.9, 633.0)">s</text><text xml:space="preserve" font-family="Helvetica-Bold" font-weight="bold" font-size="32.0" fill="#FEFFFE" transform="matrix(1.00, 0.00, -0.00, -1.00, 1171.7, 633.0)">p</text><text xml:space="preserve" font-family="Helvetica-Bold" font-weight="bold" font-size="32.0" fill="#FEFFFE" transform="matrix(1.00, 0.00, -0.00, -1.00, 1191.2, 633.0)">e</text><text xml:space="preserve" font-family="Helvetica-Bold" font-weight="bold" font-size="32.0" fill="#FEFFFE" transform="matrix(1.00, 0.00, -0.00, -1.00, 1209.0, 633.0)">c</text><text xml:space="preserve" font-family="Helvetica-Bold" font-weight="bold" font-size="32.0" fill="#FEFFFE" transform="matrix(1.00, 0.00, -0.00, -1.00, 1226.8, 633.0)">i</text><text xml:space="preserve" font-family="Helvetica-Bold" font-weight="bold" font-size="32.0" fill="#FEFFFE" transform="matrix(1.00, 0.00, -0.00, -1.00, 1235.7, 633.0)">ﬁ</text><text xml:space="preserve" font-family="Helvetica-Bold" font-weight="bold" font-size="32.0" fill="#FEFFFE" transform="matrix(1.00, 0.00, -0.00, -1.00, 1255.3, 633.0)">e</text><text xml:space="preserve" font-family="Helvetica-Bold" font-weight="bold" font-size="32.0" fill="#FEFFFE" transform="matrix(1.00, 0.00, -0.00, -1.00, 1273.1, 633.0)">d</text><text xml:space="preserve" font-family="Helvetica-Bold" font-weight="bold" font-size="32.0" fill="#FEFFFE" transform="matrix(1.00, 0.00, -0.00, -1.00, 1292.6, 633.0)"> </text><text xml:space="preserve" font-family="Helvetica-Bold" font-weight="bold" font-size="32.0" fill="#FEFFFE" transform="matrix(1.00, 0.00, -0.00, -1.00, 1301.5, 633.0)">d</text><text xml:space="preserve" font-family="Helvetica-Bold" font-weight="bold" font-size="32.0" fill="#FEFFFE" transform="matrix(1.00, 0.00, -0.00, -1.00, 1321.0, 633.0)">o</text><text xml:space="preserve" font-family="Helvetica-Bold" font-weight="bold" font-size="32.0" fill="#FEFFFE" transform="matrix(1.00, 0.00, -0.00, -1.00, 1340.6, 633.0)">c</text><text xml:space="preserve" font-family="Helvetica-Bold" font-weight="bold" font-size="32.0" fill="#FEFFFE" transform="matrix(1.00, 0.00, -0.00, -1.00, 1358.4, 633.0)">k</text><text xml:space="preserve" font-family="Helvetica-Bold" font-weight="bold" font-size="32.0" fill="#FEFFFE" transform="matrix(1.00, 0.00, -0.00, -1.00, 1376.2, 633.0)">e</text><text xml:space="preserve" font-family="Helvetica-Bold" font-weight="bold" font-size="32.0" fill="#FEFFFE" transform="matrix(1.00, 0.00, -0.00, -1.00, 1394.0, 633.0)">r</text><text xml:space="preserve" font-family="Helvetica-Bold" font-weight="bold" font-size="32.0" fill="#FEFFFE" transform="matrix(1.00, 0.00, -0.00, -1.00, 1406.4, 633.0)"> </text><text xml:space="preserve" font-family="Helvetica-Bold" font-weight="bold" font-size="32.0" fill="#FEFFFE" transform="matrix(1.00, 0.00, -0.00, -1.00, 1149.0, 595.0)">c</text><text xml:space="preserve" font-family="Helvetica-Bold" font-weight="bold" font-size="32.0" fill="#FEFFFE" transform="matrix(1.00, 0.00, -0.00, -1.00, 1166.8, 595.0)">o</text><text xml:space="preserve" font-family="Helvetica-Bold" font-weight="bold" font-size="32.0" fill="#FEFFFE" transform="matrix(1.00, 0.00, -0.00, -1.00, 1186.3, 595.0)">n</text><text xml:space="preserve" font-family="Helvetica-Bold" font-weight="bold" font-size="32.0" fill="#FEFFFE" transform="matrix(1.00, 0.00, -0.00, -1.00, 1205.9, 595.0)">ﬁ</text><text xml:space="preserve" font-family="Helvetica-Bold" font-weight="bold" font-size="32.0" fill="#FEFFFE" transform="matrix(1.00, 0.00, -0.00, -1.00, 1225.4, 595.0)">g</text><text xml:space="preserve" font-family="Helvetica-Bold" font-weight="bold" font-size="32.0" fill="#FEFFFE" transform="matrix(1.00, 0.00, -0.00, -1.00, 1245.0, 595.0)">u</text><text xml:space="preserve" font-family="Helvetica-Bold" font-weight="bold" font-size="32.0" fill="#FEFFFE" transform="matrix(1.00, 0.00, -0.00, -1.00, 1264.5, 595.0)">r</text><text xml:space="preserve" font-family="Helvetica-Bold" font-weight="bold" font-size="32.0" fill="#FEFFFE" transform="matrix(1.00, 0.00, -0.00, -1.00, 1277.0, 595.0)">a</text><text xml:space="preserve" font-family="Helvetica-Bold" font-weight="bold" font-size="32.0" fill="#FEFFFE" transform="matrix(1.00, 0.00, -0.00, -1.00, 1294.8, 595.0)">t</text><text xml:space="preserve" font-family="Helvetica-Bold" font-weight="bold" font-size="32.0" fill="#FEFFFE" transform="matrix(1.00, 0.00, -0.00, -1.00, 1305.4, 595.0)">i</text><text xml:space="preserve" font-family="Helvetica-Bold" font-weight="bold" font-size="32.0" fill="#FEFFFE" transform="matrix(1.00, 0.00, -0.00, -1.00, 1314.3, 595.0)">o</text><text xml:space="preserve" font-family="Helvetica-Bold" font-weight="bold" font-size="32.0" fill="#FEFFFE" transform="matrix(1.00, 0.00, -0.00, -1.00, 1333.8, 595.0)">n</text></g></g><text xml:space="preserve" font-family="Helvetica-BoldOblique" font-style="italic" font-weight="bold" font-size="80.0" fill="#A9A9A9" transform="matrix(1.00, 0.00, -0.00, -1.00, 735.0, 131.0)">N</text><text xml:space="preserve" font-family="Helvetica-BoldOblique" font-style="italic" font-weight="bold" font-size="80.0" fill="#A9A9A9" transform="matrix(1.00, 0.00, -0.00, -1.00, 792.8, 131.0)">o</text><text xml:space="preserve" font-family="Helvetica-BoldOblique" font-style="italic" font-weight="bold" font-size="80.0" fill="#A9A9A9" transform="matrix(1.00, 0.00, -0.00, -1.00, 841.7, 131.0)"> </text><text xml:space="preserve" font-family="Helvetica-BoldOblique" font-style="italic" font-weight="bold" font-size="80.0" fill="#A9A9A9" transform="matrix(1.00, 0.00, -0.00, -1.00, 863.9, 131.0)">e</text><text xml:space="preserve" font-family="Helvetica-BoldOblique" font-style="italic" font-weight="bold" font-size="80.0" fill="#A9A9A9" transform="matrix(1.00, 0.00, -0.00, -1.00, 908.4, 131.0)">x</text><text xml:space="preserve" font-family="Helvetica-BoldOblique" font-style="italic" font-weight="bold" font-size="80.0" fill="#A9A9A9" transform="matrix(1.00, 0.00, -0.00, -1.00, 952.9, 131.0)">a</text><text xml:space="preserve" font-family="Helvetica-BoldOblique" font-style="italic" font-weight="bold" font-size="80.0" fill="#A9A9A9" transform="matrix(1.00, 0.00, -0.00, -1.00, 997.4, 131.0)">m</text><text xml:space="preserve" font-family="Helvetica-BoldOblique" font-style="italic" font-weight="bold" font-size="80.0" fill="#A9A9A9" transform="matrix(1.00, 0.00, -0.00, -1.00, 1068.6, 131.0)">p</text><text xml:space="preserve" font-family="Helvetica-BoldOblique" font-style="italic" font-weight="bold" font-size="80.0" fill="#A9A9A9" transform="matrix(1.00, 0.00, -0.00, -1.00, 1117.5, 131.0)">l</text><text xml:space="preserve" font-family="Helvetica-BoldOblique" font-style="italic" font-weight="bold" font-size="80.0" fill="#A9A9A9" transform="matrix(1.00, 0.00, -0.00, -1.00, 1139.7, 131.0)">e</text></g></svg>